# Blender v2.80 (sub 74) OBJ File: 'robot.blend'
# www.blender.org
o Plane.001
v -1.300000 0.450000 0.720000
v 1.300000 0.450000 0.720000
v 1.456785 -0.133434 -0.720000
v 1.418434 -0.208701 -0.720000
v 1.600000 -0.150000 0.720000
v 1.358702 -0.268434 -0.720000
v 1.392705 0.435317 0.720000
v 1.283434 -0.306785 -0.720000
v 1.476336 0.392705 0.720000
v -1.456785 -0.133433 -0.720000
v 1.542705 0.326335 0.720000
v -1.418435 -0.208701 -0.720000
v 1.585317 0.242704 0.720000
v -1.358702 -0.268434 -0.720000
v 1.600000 0.149999 0.720000
v -1.283435 -0.306785 -0.720000
v -1.470001 0.050000 -0.720000
v -1.300000 -0.450001 0.720000
v 1.300000 -0.450001 0.720000
v -1.456785 0.133434 -0.720000
v -1.600000 -0.150000 0.720000
v -1.418435 0.208702 -0.720000
v -1.392705 0.435317 0.720000
v -1.358702 0.268435 -0.720000
v -1.476335 0.392705 0.720000
v -1.283435 0.306786 -0.720000
v -1.542705 0.326335 0.720000
v -1.470000 -0.049999 -0.720000
v -1.585316 0.242704 0.720000
v 1.200000 -0.320000 -0.720000
v -1.600000 0.150000 0.720000
v -1.392705 -0.435317 0.720000
v -1.200000 -0.320000 -0.720000
v -1.476335 -0.392705 0.720000
v 1.469999 0.050000 -0.720000
v -1.542705 -0.326336 0.720000
v 1.456785 0.133434 -0.720000
v -1.585316 -0.242704 0.720000
v 1.418434 0.208702 -0.720000
v 1.358702 0.268435 -0.720000
v 1.283435 0.306786 -0.720000
v 1.392705 -0.435318 0.720000
v 1.470000 -0.050000 -0.720000
v 1.476336 -0.392705 0.720000
v 1.200000 0.320001 -0.720000
v 1.542705 -0.326336 0.720000
v -1.200000 0.320001 -0.720000
v 1.585317 -0.242705 0.720000
v -1.200000 0.320000 0.720000
v 1.200000 0.320000 0.720000
v 1.585316 -0.242704 -0.720000
v 1.542705 -0.326335 -0.720000
v 1.470001 -0.050000 0.720000
v 1.476335 -0.392705 -0.720000
v 1.283435 0.306785 0.720000
v 1.392704 -0.435317 -0.720000
v 1.358702 0.268434 0.720000
v -1.585317 -0.242704 -0.720000
v 1.418435 0.208702 0.720000
v -1.542705 -0.326335 -0.720000
v 1.456785 0.133434 0.720000
v -1.476336 -0.392704 -0.720000
v 1.470000 0.049999 0.720000
v -1.392706 -0.435316 -0.720000
v -1.600000 0.150000 -0.720000
v -1.200000 -0.320001 0.720000
v 1.200000 -0.320001 0.720000
v -1.585317 0.242705 -0.720000
v -1.470000 -0.050000 0.720000
v -1.542705 0.326336 -0.720000
v -1.283434 0.306785 0.720000
v -1.476336 0.392705 -0.720000
v -1.358702 0.268434 0.720000
v -1.392705 0.435317 -0.720000
v -1.418434 0.208702 0.720000
v -1.600000 -0.149999 -0.720000
v -1.456785 0.133434 0.720000
v 1.300000 -0.450000 -0.720000
v -1.470000 0.050000 0.720000
v -1.283435 -0.306785 0.720000
v -1.300000 -0.450000 -0.720000
v -1.358702 -0.268435 0.720000
v 1.599999 0.149999 -0.720000
v -1.418434 -0.208702 0.720000
v 1.585316 0.242705 -0.720000
v -1.456785 -0.133434 0.720000
v 1.542705 0.326336 -0.720000
v 1.476335 0.392705 -0.720000
v 1.392705 0.435317 -0.720000
v 1.283434 -0.306786 0.720000
v 1.600000 -0.149999 -0.720000
v 1.358702 -0.268435 0.720000
v 1.300000 0.450001 -0.720000
v 1.418435 -0.208702 0.720000
v -1.300000 0.450001 -0.720000
v 1.456785 -0.133434 0.720000
vt 1.000000 0.000000
vt 1.000000 0.000000
vt 1.000000 0.000000
vt 1.000000 0.000000
vt 1.000000 0.000000
vt 1.000000 0.000000
vt 1.000000 0.000000
vt 1.000000 0.000000
vt 1.000000 0.000000
vt 1.000000 0.000000
vt 1.000000 1.000000
vt 1.000000 1.000000
vt 1.000000 1.000000
vt 1.000000 1.000000
vt 1.000000 1.000000
vt 1.000000 1.000000
vt 1.000000 1.000000
vt 1.000000 1.000000
vt 1.000000 1.000000
vt 1.000000 1.000000
vt 1.000000 1.000000
vt 1.000000 1.000000
vt 0.000000 1.000000
vt 1.000000 0.000000
vt 1.000000 1.000000
vt 1.000000 1.000000
vt 1.000000 1.000000
vt 1.000000 1.000000
vt 1.000000 0.000000
vt 1.000000 0.000000
vt 1.000000 0.000000
vt 1.000000 0.000000
vt 1.000000 1.000000
vt 1.000000 1.000000
vt 1.000000 0.000000
vt 1.000000 0.000000
vt 1.000000 0.000000
vt 1.000000 0.000000
vt 1.000000 0.000000
vt 1.000000 0.000000
vt 1.000000 1.000000
vt 0.000000 0.000000
vt 1.000000 1.000000
vt 1.000000 0.000000
vt 1.000000 0.000000
vt 1.000000 0.000000
vt 1.000000 0.000000
vt 0.000000 0.000000
vt 1.000000 0.000000
vt 0.000000 0.000000
vt 1.000000 0.000000
vt 0.000000 0.000000
vt 1.000000 0.000000
vt 1.000000 0.000000
vt 1.000000 0.000000
vt 1.000000 0.000000
vt 1.000000 0.000000
vt 1.000000 0.000000
vt 1.000000 0.000000
vt 1.000000 0.000000
vt 1.000000 0.000000
vt 1.000000 0.000000
vt 1.000000 0.000000
vt 1.000000 1.000000
vt 1.000000 1.000000
vt 1.000000 1.000000
vt 1.000000 1.000000
vt 1.000000 1.000000
vt 1.000000 1.000000
vt 1.000000 1.000000
vt 1.000000 1.000000
vt 1.000000 1.000000
vt 1.000000 1.000000
vt 1.000000 1.000000
vt 1.000000 1.000000
vt 1.000000 1.000000
vt 1.000000 1.000000
vt 1.000000 1.000000
vt 1.000000 1.000000
vt 1.000000 1.000000
vt 1.000000 1.000000
vt 1.000000 1.000000
vt 1.000000 0.000000
vt 1.000000 0.000000
vt 1.000000 0.000000
vt 1.000000 0.000000
vt 1.000000 0.000000
vt 1.000000 0.000000
vt 1.000000 0.000000
vt 1.000000 0.000000
vt 1.000000 0.000000
vt 1.000000 0.000000
vt 0.000000 1.000000
vt 1.000000 1.000000
vt 1.000000 0.000000
vt 1.000000 0.000000
vt 1.000000 1.000000
vt 1.000000 1.000000
vt 1.000000 0.000000
vt 1.000000 0.000000
vn -0.0000 0.0000 -1.0000
vn 0.0000 0.0000 1.0000
vn 0.0540 0.6864 -0.7252
vn 0.2064 0.6354 0.7440
vn 0.0540 0.6864 0.7252
vn -0.4345 0.5980 -0.6735
vn -0.5980 0.4345 0.6735
vn -0.4345 0.5980 0.6735
vn 0.7217 0.0568 -0.6898
vn 0.7030 0.2284 0.6735
vn 0.7217 0.0568 0.6898
vn 0.4345 -0.5980 -0.6735
vn 0.5980 -0.4345 0.6735
vn 0.4345 -0.5980 0.6735
vn -0.4345 -0.5980 -0.6735
vn -0.2284 -0.7030 0.6735
vn -0.4345 -0.5980 0.6735
vn 0.2064 -0.6354 -0.7440
vn 0.0540 -0.6864 0.7252
vn 0.2064 -0.6354 0.7440
vn 0.7030 0.2284 -0.6735
vn 0.5980 0.4345 0.6735
vn -0.0540 0.6864 -0.7252
vn -0.0540 0.6864 0.7252
vn -0.2284 0.7030 -0.6735
vn -0.2284 0.7030 0.6735
vn 0.6864 0.0540 -0.7252
vn 0.6864 -0.0540 0.7252
vn 0.6864 0.0540 0.7252
vn -0.7030 0.2284 0.6735
vn -0.7217 0.0568 -0.6898
vn -0.7217 0.0568 0.6898
vn 0.2284 -0.7030 -0.6735
vn 0.2284 -0.7030 0.6735
vn 0.5405 0.3927 -0.7440
vn 0.6354 0.2064 0.7440
vn 0.5405 0.3927 0.7440
vn -0.7217 -0.0568 -0.6898
vn -0.7217 -0.0568 0.6898
vn 0.0568 0.7217 -0.6898
vn -0.0568 0.7217 0.6898
vn 0.0568 0.7217 0.6898
vn -0.2064 0.6354 0.7440
vn -0.2284 -0.7030 -0.6735
vn -0.0568 -0.7217 0.6898
vn 0.5980 0.4345 -0.6735
vn 0.4345 0.5980 0.6735
vn -0.2064 -0.6354 -0.7440
vn -0.3927 -0.5405 0.7440
vn -0.2064 -0.6354 0.7440
vn -0.7030 -0.2284 0.6735
vn 0.6354 -0.2064 -0.7440
vn 0.5405 -0.3927 0.7440
vn 0.6354 -0.2064 0.7440
vn -0.0540 -0.6864 -0.7252
vn -0.0540 -0.6864 0.7252
vn -0.6354 0.2064 -0.7440
vn -0.5405 0.3927 0.7440
vn -0.6354 0.2064 0.7440
vn -0.3927 -0.5405 -0.7440
vn -0.5405 -0.3927 0.7440
vn 0.7030 -0.2284 -0.6735
vn 0.7217 -0.0568 0.6898
vn 0.7030 -0.2284 0.6735
vn -0.3927 0.5405 -0.7440
vn -0.3927 0.5405 0.7440
vn 0.7217 -0.0568 -0.6898
vn -0.5980 -0.4345 -0.6735
vn -0.5980 -0.4345 0.6735
vn 0.6864 -0.0540 -0.7252
vn 0.3927 -0.5405 -0.7440
vn 0.3927 -0.5405 0.7440
vn 0.5980 -0.4345 -0.6735
vn 0.2284 0.7030 -0.6735
vn 0.2284 0.7030 0.6735
vn -0.5980 0.4345 -0.6735
vn -0.5405 -0.3927 -0.7440
vn -0.6354 -0.2064 0.7441
vn 0.2064 0.6354 -0.7440
vn 0.3927 0.5405 0.7440
vn -0.5405 0.3927 -0.7440
vn 0.0568 -0.7217 -0.6898
vn 0.0568 -0.7217 0.6898
vn -0.6354 -0.2064 -0.7440
vn -0.6864 -0.0540 0.7252
vn -0.6864 0.0540 -0.7252
vn -0.6864 0.0540 0.7252
vn 0.4345 0.5980 -0.6735
vn -0.6864 -0.0540 -0.7252
vn 0.3927 0.5405 -0.7440
vn -0.0568 0.7217 -0.6898
vn 0.0540 -0.6864 -0.7252
vn -0.7030 0.2284 -0.6735
vn 0.6354 0.2064 -0.7440
vn -0.2064 0.6354 -0.7440
vn -0.0568 -0.7217 -0.6898
vn -0.7030 -0.2284 -0.6735
vn 0.5405 -0.3927 -0.7440
s off
f 76/1/1 10/2/1 58/3/1
f 64/4/1 14/5/1 16/6/1
f 58/3/1 12/7/1 60/8/1
f 81/9/1 16/6/1 33/10/1
f 81/9/1 30/11/1 78/12/1
f 65/13/1 20/14/1 17/15/1
f 68/16/1 22/17/1 20/14/1
f 70/18/1 24/19/1 22/17/1
f 56/20/1 6/21/1 54/22/1
f 76/1/1 17/23/1 28/24/1
f 52/25/1 6/21/1 4/26/1
f 51/27/1 4/26/1 3/28/1
f 91/29/1 3/28/1 43/30/1
f 83/31/1 43/30/1 35/32/1
f 74/33/1 24/19/1 72/34/1
f 83/31/1 37/35/1 85/36/1
f 85/36/1 39/37/1 87/38/1
f 87/38/1 40/39/1 88/40/1
f 78/12/1 8/41/1 56/20/1
f 95/42/1 26/43/1 74/33/1
f 89/44/1 40/39/1 41/45/1
f 93/46/1 41/45/1 45/47/1
f 93/46/1 47/48/1 95/42/1
f 60/8/1 14/5/1 62/49/1
f 49/50/2 2/51/2 1/52/2
f 2/51/2 55/53/2 7/54/2
f 7/54/2 57/55/2 9/56/2
f 57/55/2 11/57/2 9/56/2
f 59/58/2 13/59/2 11/57/2
f 61/60/2 15/61/2 13/59/2
f 15/61/2 53/62/2 5/63/2
f 5/63/2 96/64/2 48/65/2
f 48/65/2 94/66/2 46/67/2
f 46/67/2 92/68/2 44/69/2
f 92/68/2 42/70/2 44/69/2
f 90/71/2 19/72/2 42/70/2
f 71/73/2 1/52/2 23/74/2
f 73/75/2 23/74/2 25/76/2
f 27/77/2 73/75/2 25/76/2
f 29/78/2 75/79/2 27/77/2
f 31/80/2 77/81/2 29/78/2
f 67/82/2 18/83/2 19/72/2
f 18/83/2 80/84/2 32/85/2
f 32/85/2 82/86/2 34/87/2
f 82/86/2 36/88/2 34/87/2
f 84/89/2 38/90/2 36/88/2
f 86/91/2 21/92/2 38/90/2
f 21/92/2 79/93/2 31/80/2
f 76/1/1 28/24/1 10/2/1
f 64/4/1 62/49/1 14/5/1
f 58/3/1 10/2/1 12/7/1
f 81/9/1 64/4/1 16/6/1
f 81/9/1 33/10/1 30/11/1
f 65/13/1 68/16/1 20/14/1
f 68/16/1 70/18/1 22/17/1
f 70/18/1 72/34/1 24/19/1
f 56/20/1 8/41/1 6/21/1
f 76/1/1 65/13/1 17/23/1
f 52/25/1 54/22/1 6/21/1
f 51/27/1 52/25/1 4/26/1
f 91/29/1 51/27/1 3/28/1
f 83/31/1 91/29/1 43/30/1
f 74/33/1 26/43/1 24/19/1
f 83/31/1 35/32/1 37/35/1
f 85/36/1 37/35/1 39/37/1
f 87/38/1 39/37/1 40/39/1
f 78/12/1 30/11/1 8/41/1
f 95/42/1 47/94/1 26/43/1
f 89/44/1 88/40/1 40/39/1
f 93/46/1 89/44/1 41/45/1
f 93/46/1 45/47/1 47/48/1
f 60/8/1 12/7/1 14/5/1
f 49/50/2 50/95/2 2/51/2
f 2/51/2 50/95/2 55/53/2
f 7/54/2 55/53/2 57/55/2
f 57/55/2 59/58/2 11/57/2
f 59/58/2 61/60/2 13/59/2
f 61/60/2 63/96/2 15/61/2
f 15/61/2 63/96/2 53/62/2
f 5/63/2 53/62/2 96/64/2
f 48/65/2 96/64/2 94/66/2
f 46/67/2 94/66/2 92/68/2
f 92/68/2 90/71/2 42/70/2
f 90/71/2 67/82/2 19/72/2
f 71/73/2 49/97/2 1/52/2
f 73/75/2 71/73/2 23/74/2
f 27/77/2 75/79/2 73/75/2
f 29/78/2 77/81/2 75/79/2
f 31/80/2 79/98/2 77/81/2
f 67/82/2 66/99/2 18/83/2
f 18/83/2 66/99/2 80/84/2
f 32/85/2 80/84/2 82/86/2
f 82/86/2 84/89/2 36/88/2
f 84/89/2 86/91/2 38/90/2
f 86/91/2 69/100/2 21/92/2
f 21/92/2 69/100/2 79/93/2
s 1
f 33/10/3 80/84/4 66/99/5
f 72/34/6 27/77/7 25/76/8
f 83/31/9 13/59/10 15/61/11
f 54/22/12 46/67/13 44/69/14
f 62/49/15 32/85/16 34/87/17
f 26/43/18 49/97/19 71/73/20
f 85/36/21 11/57/22 13/59/10
f 30/11/23 66/99/5 67/82/24
f 74/33/25 25/76/8 23/74/26
f 28/24/27 79/93/28 69/100/29
f 29/78/30 65/13/31 31/80/32
f 56/20/33 44/69/14 42/70/34
f 12/7/35 86/91/36 84/89/37
f 31/80/32 76/1/38 21/92/39
f 93/46/40 1/52/41 2/51/42
f 90/71/43 30/11/23 67/82/24
f 64/4/44 18/83/45 32/85/16
f 87/38/46 9/56/47 11/57/22
f 41/45/48 57/55/49 55/53/50
f 76/1/38 38/90/51 21/92/39
f 20/14/52 75/79/53 77/81/54
f 45/47/55 55/53/50 50/95/56
f 3/28/57 94/66/58 96/64/59
f 40/39/60 59/58/61 57/55/49
f 51/27/62 5/63/63 48/65/64
f 6/21/65 90/71/43 92/68/66
f 91/29/67 15/61/11 5/63/63
f 60/8/68 34/87/17 36/88/69
f 17/15/70 77/81/54 79/98/28
f 24/19/71 71/73/20 73/75/72
f 52/25/73 48/65/64 46/67/13
f 86/91/36 28/24/27 69/100/29
f 49/50/19 45/47/55 50/95/56
f 89/44/74 2/51/42 7/54/75
f 70/18/76 29/78/30 27/77/7
f 39/37/77 61/60/78 59/58/61
f 16/6/79 82/86/80 80/84/4
f 4/26/81 92/68/66 94/66/58
f 78/12/82 42/70/34 19/72/83
f 38/90/51 60/8/68 36/88/69
f 75/79/53 24/19/71 73/75/72
f 37/35/84 63/96/85 61/60/78
f 43/30/86 96/64/59 53/62/87
f 88/40/88 7/54/75 9/56/47
f 35/32/89 53/62/87 63/96/85
f 18/83/45 78/12/82 19/72/83
f 14/5/90 84/89/37 82/86/80
f 95/42/91 23/74/26 1/52/41
f 33/10/3 16/6/79 80/84/4
f 72/34/6 70/18/76 27/77/7
f 83/31/9 85/36/21 13/59/10
f 54/22/12 52/25/73 46/67/13
f 62/49/15 64/4/44 32/85/16
f 26/43/18 47/94/92 49/97/19
f 85/36/21 87/38/46 11/57/22
f 30/11/23 33/10/3 66/99/5
f 74/33/25 72/34/6 25/76/8
f 28/24/27 17/23/70 79/93/28
f 29/78/30 68/16/93 65/13/31
f 56/20/33 54/22/12 44/69/14
f 12/7/35 10/2/94 86/91/36
f 31/80/32 65/13/31 76/1/38
f 93/46/40 95/42/91 1/52/41
f 90/71/43 8/41/95 30/11/23
f 64/4/44 81/9/96 18/83/45
f 87/38/46 88/40/88 9/56/47
f 41/45/48 40/39/60 57/55/49
f 76/1/38 58/3/97 38/90/51
f 20/14/52 22/17/98 75/79/53
f 45/47/55 41/45/48 55/53/50
f 3/28/57 4/26/81 94/66/58
f 40/39/60 39/37/77 59/58/61
f 51/27/62 91/29/67 5/63/63
f 6/21/65 8/41/95 90/71/43
f 91/29/67 83/31/9 15/61/11
f 60/8/68 62/49/15 34/87/17
f 17/15/70 20/14/52 77/81/54
f 24/19/71 26/43/18 71/73/20
f 52/25/73 51/27/62 48/65/64
f 86/91/36 10/2/94 28/24/27
f 49/50/19 47/48/92 45/47/55
f 89/44/74 93/46/40 2/51/42
f 70/18/76 68/16/93 29/78/30
f 39/37/77 37/35/84 61/60/78
f 16/6/79 14/5/90 82/86/80
f 4/26/81 6/21/65 92/68/66
f 78/12/82 56/20/33 42/70/34
f 38/90/51 58/3/97 60/8/68
f 75/79/53 22/17/98 24/19/71
f 37/35/84 35/32/89 63/96/85
f 43/30/86 3/28/57 96/64/59
f 88/40/88 89/44/74 7/54/75
f 35/32/89 43/30/86 53/62/87
f 18/83/45 81/9/96 78/12/82
f 14/5/90 12/7/35 84/89/37
f 95/42/91 74/33/25 23/74/26
