# Blender v2.80 (sub 74) OBJ File: 'robot.blend'
# www.blender.org
o Cylinder
v -2.000000 -0.130154 -1.211964
v 2.000000 -0.130153 -1.211964
v -2.000000 -0.340086 -1.270318
v 2.000000 -0.340085 -1.270318
v -2.000000 -0.506548 -1.234252
v 2.000000 -0.506548 -1.234252
v -2.000000 -0.506548 -1.091859
v 2.000000 -0.506548 -1.091859
v -2.000000 -0.506548 -0.867294
v 2.000000 -0.506548 -0.867294
v -2.000000 -0.506548 -0.585104
v 2.000000 -0.506548 -0.585105
v -2.000000 -0.506548 -0.279376
v 2.000000 -0.506548 -0.279377
v -2.000000 -0.506548 -0.011585
v 2.000000 -0.506548 -0.011585
v -2.000000 -0.506548 0.193225
v 2.000001 -0.506548 0.193224
v -2.000000 -0.506548 0.400897
v 2.000001 -0.506548 0.400896
v -2.000000 -0.506548 0.600958
v 2.000001 -0.506548 0.600958
v -1.999999 -0.506548 0.782902
v 2.000001 -0.506548 0.782902
v -1.999999 -0.506548 0.939978
v 2.000000 -0.506548 0.939978
v -1.999999 -0.506548 1.068187
v 2.000000 -0.506548 1.068187
v -2.000000 -0.409763 1.164031
v 2.000000 -0.409763 1.164031
v -2.000000 -0.309492 1.222756
v 2.000000 -0.309492 1.222756
v -2.000000 -0.195817 1.238241
v 2.000000 -0.195817 1.238241
v -2.000000 -0.074597 1.204517
v 2.000000 -0.074597 1.204517
v -2.000000 0.050304 1.117921
v 2.000000 0.050305 1.117921
v -2.000000 0.173750 0.979178
v 2.000000 0.173750 0.979177
v -2.000000 0.304312 0.790813
v 2.000000 0.304313 0.790813
v -2.000000 0.451693 0.558755
v 2.000000 0.451694 0.558754
v -2.000000 0.604149 0.297742
v 2.000000 0.604150 0.297742
v -2.000000 0.734881 0.054119
v 2.000000 0.734881 0.054119
v -2.000000 0.858605 -0.220705
v 2.000000 0.858605 -0.220706
v -2.000000 0.860106 -0.391915
v 2.000000 0.860106 -0.391916
v -2.000000 0.868097 -0.619381
v 2.000000 0.868097 -0.619381
v -2.000000 0.851584 -0.833129
v 2.000000 0.851584 -0.833129
v -2.000000 0.729283 -0.922825
v 2.000000 0.729283 -0.922825
v -2.000000 0.564981 -0.957196
v 2.000000 0.564981 -0.957197
v -2.000000 0.369418 -1.013253
v 2.000000 0.369419 -1.013253
v -2.000000 0.117321 -1.104059
v 2.000000 0.117321 -1.104059
vt 0.998013 0.613539
vt 0.998013 0.500695
vt 0.998013 -0.062089
vt -0.001949 -0.062089
vt -0.001949 -0.035325
vt -0.001950 0.500695
vt 0.998013 0.075808
vt 0.998013 0.161423
vt 0.998013 0.010069
vt 0.998013 0.264278
vt 0.998013 0.379779
vt 0.998013 -0.035325
vt 0.998013 -0.062089
vt 0.998013 0.500694
vt 0.998013 -0.073937
vt 0.998013 -0.076224
vt 0.998013 -0.075436
vt 0.998013 0.793620
vt 0.998013 -0.076224
vt 0.998013 0.853936
vt 0.998013 0.891079
vt 0.998013 -0.073937
vt 0.998013 0.712448
vt 0.998013 0.891079
vt 0.998013 0.613538
vt 0.998013 0.712447
vt 0.998013 0.853936
vt 0.998013 0.793619
vt 0.998013 -0.035325
vt 0.998013 0.903620
vt 0.998013 0.075809
vt 0.998013 0.010069
vt 0.998013 0.264279
vt 0.998013 0.161424
vt 0.998013 0.379781
vt -0.001950 0.379779
vt -0.001950 0.264278
vt -0.001950 -0.035325
vt -0.001950 0.161423
vt -0.001950 0.010069
vt -0.001950 0.075808
vt -0.001950 -0.062089
vt -0.001950 0.500694
vt -0.001949 -0.073937
vt -0.001949 -0.076224
vt -0.001950 0.891079
vt -0.001950 0.891079
vt -0.001950 0.613538
vt -0.001950 0.793619
vt -0.001950 0.712446
vt -0.001950 0.853935
vt -0.001950 0.903620
vt -0.001949 -0.075436
vt -0.001950 0.853936
vt -0.001949 -0.076224
vt -0.001949 -0.073937
vt -0.001950 0.712448
vt -0.001950 0.613539
vt -0.001950 0.793620
vt -0.001949 0.379781
vt -0.001949 0.161423
vt -0.001949 0.264278
vt -0.001949 0.010069
vt -0.001949 0.075808
vn 1.0000 0.0000 0.0000
vn -1.0000 -0.0000 0.0000
vn 0.6917 0.2416 -0.6806
vn -0.6569 0.0218 -0.7537
vn -0.6917 0.2416 -0.6806
vn 0.6569 0.0218 -0.7537
vn -0.5894 -0.6288 -0.5071
vn 0.5894 -0.6288 -0.5071
vn -0.7071 -0.7071 0.0000
vn 0.7071 -0.7071 0.0000
vn -0.6298 -0.7168 0.2990
vn 0.6298 -0.7168 0.2990
vn -0.6800 -0.4467 0.5814
vn 0.6800 -0.4467 0.5814
vn -0.6655 -0.2437 0.7054
vn 0.6655 -0.2437 0.7054
vn -0.6643 0.0508 0.7457
vn 0.6643 0.0508 0.7457
vn -0.6714 0.3148 0.6708
vn 0.6814 0.4853 0.5478
vn -0.6814 0.4853 0.5478
vn -0.6937 0.5660 0.4453
vn 0.6937 0.5660 0.4453
vn -0.7026 0.5929 0.3935
vn 0.7026 0.5929 0.3935
vn -0.7029 0.6073 0.3701
vn 0.7031 0.6204 0.3475
vn -0.7031 0.6204 0.3475
vn 0.6994 0.6412 0.3159
vn -0.6994 0.6412 0.3159
vn -0.6636 0.7307 0.1602
vn 0.7101 0.7039 0.0154
vn -0.7101 0.7039 0.0154
vn 0.6947 0.7191 -0.0151
vn -0.6947 0.7191 -0.0151
vn -0.6241 0.6828 -0.3797
vn 0.6241 0.6828 -0.3797
vn -0.6624 0.3051 -0.6842
vn 0.6624 0.3051 -0.6842
vn -0.7154 0.1679 -0.6782
vn 0.7154 0.1679 -0.6782
vn -0.7147 0.2150 -0.6656
vn 0.7147 0.2150 -0.6656
vn -0.7145 0.2585 -0.6501
vn 0.7145 0.2585 -0.6501
vn 0.6714 0.3148 0.6708
vn 0.7029 0.6073 0.3701
vn 0.6636 0.7307 0.1602
s off
f 40/1/1 38/2/1 24/3/1
f 23/4/2 25/5/2 37/6/2
f 6/7/1 4/8/1 8/9/1
f 4/8/1 2/10/1 8/9/1
f 2/10/1 64/11/1 10/12/1
f 8/9/1 2/10/1 10/12/1
f 12/13/1 10/12/1 64/11/1
f 12/13/1 64/11/1 62/14/1
f 14/15/1 12/13/1 62/14/1
f 20/16/1 18/17/1 44/18/1
f 18/17/1 16/19/1 46/20/1
f 46/20/1 16/19/1 48/21/1
f 22/22/1 20/16/1 42/23/1
f 16/19/1 14/15/1 48/21/1
f 14/15/1 62/14/1 52/24/1
f 60/25/1 58/26/1 54/27/1
f 58/26/1 56/28/1 54/27/1
f 14/15/1 52/24/1 48/21/1
f 62/14/1 60/25/1 52/24/1
f 26/29/1 24/3/1 38/2/1
f 24/3/1 22/22/1 40/1/1
f 18/17/1 46/20/1 44/18/1
f 52/24/1 50/30/1 48/21/1
f 60/25/1 54/27/1 52/24/1
f 20/16/1 44/18/1 42/23/1
f 30/31/1 28/32/1 26/29/1
f 34/33/1 32/34/1 26/29/1
f 32/34/1 30/31/1 26/29/1
f 38/2/1 36/35/1 26/29/1
f 36/35/1 34/33/1 26/29/1
f 42/23/1 40/1/1 22/22/1
f 63/36/2 1/37/2 9/38/2
f 1/37/2 3/39/2 7/40/2
f 3/39/2 5/41/2 7/40/2
f 7/40/2 9/38/2 1/37/2
f 9/38/2 11/42/2 63/36/2
f 63/36/2 11/42/2 61/43/2
f 11/42/2 13/44/2 61/43/2
f 13/44/2 15/45/2 47/46/2
f 61/43/2 51/47/2 59/48/2
f 55/49/2 57/50/2 53/51/2
f 57/50/2 59/48/2 53/51/2
f 61/43/2 13/44/2 51/47/2
f 47/46/2 49/52/2 51/47/2
f 51/47/2 53/51/2 59/48/2
f 13/44/2 47/46/2 51/47/2
f 15/45/2 17/53/2 45/54/2
f 47/46/2 15/45/2 45/54/2
f 19/55/2 21/56/2 41/57/2
f 21/56/2 23/4/2 39/58/2
f 39/58/2 23/4/2 37/6/2
f 17/53/2 19/55/2 43/59/2
f 43/59/2 45/54/2 17/53/2
f 39/58/2 41/57/2 21/56/2
f 41/57/2 43/59/2 19/55/2
f 35/60/2 37/6/2 25/5/2
f 31/61/2 33/62/2 25/5/2
f 33/62/2 35/60/2 25/5/2
f 27/63/2 29/64/2 25/5/2
f 29/64/2 31/61/2 25/5/2
s 1
f 2/10/3 3/39/4 1/37/5
f 4/8/6 5/41/7 3/39/4
f 6/7/8 7/40/9 5/41/7
f 8/9/10 9/38/9 7/40/9
f 10/12/10 11/42/9 9/38/9
f 12/13/10 13/44/9 11/42/9
f 14/15/10 15/45/9 13/44/9
f 16/19/10 17/53/9 15/45/9
f 18/17/10 19/55/9 17/53/9
f 20/16/10 21/56/9 19/55/9
f 22/22/10 23/4/9 21/56/9
f 23/4/9 26/29/10 25/5/9
f 26/29/10 27/63/11 25/5/9
f 28/32/12 29/64/13 27/63/11
f 30/31/14 31/61/15 29/64/13
f 32/34/16 33/62/17 31/61/15
f 34/33/18 35/60/19 33/62/17
f 35/60/19 38/2/20 37/6/21
f 38/2/20 39/58/22 37/6/21
f 40/1/23 41/57/24 39/58/22
f 42/23/25 43/59/26 41/57/24
f 43/59/26 46/20/27 45/54/28
f 45/54/28 48/21/29 47/46/30
f 48/21/29 49/52/31 47/46/30
f 49/52/31 52/24/32 51/47/33
f 51/47/33 54/27/34 53/51/35
f 54/27/34 55/49/36 53/51/35
f 56/28/37 57/50/38 55/49/36
f 58/26/39 59/48/40 57/50/38
f 60/25/41 61/43/42 59/48/40
f 62/14/43 63/36/44 61/43/42
f 64/11/45 1/37/5 63/36/44
f 2/10/3 4/8/6 3/39/4
f 4/8/6 6/7/8 5/41/7
f 6/7/8 8/9/10 7/40/9
f 8/9/10 10/12/10 9/38/9
f 10/12/10 12/13/10 11/42/9
f 12/13/10 14/15/10 13/44/9
f 14/15/10 16/19/10 15/45/9
f 16/19/10 18/17/10 17/53/9
f 18/17/10 20/16/10 19/55/9
f 20/16/10 22/22/10 21/56/9
f 22/22/10 24/3/10 23/4/9
f 23/4/9 24/3/10 26/29/10
f 26/29/10 28/32/12 27/63/11
f 28/32/12 30/31/14 29/64/13
f 30/31/14 32/34/16 31/61/15
f 32/34/16 34/33/18 33/62/17
f 34/33/18 36/35/46 35/60/19
f 35/60/19 36/35/46 38/2/20
f 38/2/20 40/1/23 39/58/22
f 40/1/23 42/23/25 41/57/24
f 42/23/25 44/18/47 43/59/26
f 43/59/26 44/18/47 46/20/27
f 45/54/28 46/20/27 48/21/29
f 48/21/29 50/30/48 49/52/31
f 49/52/31 50/30/48 52/24/32
f 51/47/33 52/24/32 54/27/34
f 54/27/34 56/28/37 55/49/36
f 56/28/37 58/26/39 57/50/38
f 58/26/39 60/25/41 59/48/40
f 60/25/41 62/14/43 61/43/42
f 62/14/43 64/11/45 63/36/44
f 64/11/45 2/10/3 1/37/5
