# Blender v2.80 (sub 48) OBJ File: ''
# www.blender.org
o buckyball
v 1.809017 0.500000 1.618034
v 1.809017 -0.500000 1.618034
v 2.118034 -1.000000 0.809017
v 2.427051 -0.500000 -0.000000
v 2.427051 0.500000 0.000000
v 2.118034 1.000000 0.809017
v 1.618034 1.809017 0.500000
v 0.809017 2.118034 1.000000
v 0.500000 1.618034 1.809017
v 1.000000 0.809017 2.118034
v -0.500000 1.618034 1.809017
v -1.000000 0.809017 2.118034
v -0.500000 -0.000000 2.427051
v 0.500000 -0.000000 2.427051
v -1.000000 -0.809017 2.118034
v -0.500000 -1.618034 1.809017
v 0.500000 -1.618034 1.809017
v 1.000000 -0.809017 2.118034
v 0.809017 -2.118034 1.000000
v 1.618034 -1.809017 0.500000
v -0.809017 2.118034 1.000000
v -1.618034 1.809017 0.500000
v -2.118034 1.000000 0.809017
v -1.809017 0.500000 1.618034
v -2.427051 0.500000 0.000000
v -2.427051 -0.500000 -0.000000
v -2.118034 -1.000000 0.809017
v -1.809017 -0.500000 1.618034
v -1.618034 -1.809017 0.500000
v -0.809017 -2.118034 1.000000
v 0.000000 2.427051 0.500000
v 0.000000 2.427051 -0.500000
v -0.809017 2.118034 -1.000000
v -1.618034 1.809017 -0.500000
v -0.500000 1.618034 -1.809017
v -1.000000 0.809017 -2.118034
v -1.809017 0.500000 -1.618034
v -2.118034 1.000000 -0.809017
v -1.809017 -0.500000 -1.618034
v -2.118034 -1.000000 -0.809017
v -1.618034 -1.809017 -0.500000
v -0.809017 -2.118034 -1.000000
v 0.000000 -2.427051 -0.500000
v 0.000000 -2.427051 0.500000
v -1.000000 -0.809017 -2.118034
v -0.500000 -1.618034 -1.809017
v 0.500000 1.618034 -1.809017
v 1.000000 0.809017 -2.118034
v 0.500000 0.000000 -2.427051
v -0.500000 0.000000 -2.427051
v 1.000000 -0.809017 -2.118034
v 0.500000 -1.618034 -1.809017
v 0.809017 2.118034 -1.000000
v 1.618034 1.809017 -0.500000
v 2.118034 1.000000 -0.809017
v 1.809017 0.500000 -1.618034
v 2.118034 -1.000000 -0.809017
v 1.809017 -0.500000 -1.618034
v 1.618034 -1.809017 -0.500000
v 0.809017 -2.118034 -1.000000
vn 0.9342 0.0000 0.3568
vn 0.5774 0.5774 0.5774
vn 0.0000 0.3568 0.9342
vn 0.0000 -0.3568 0.9342
vn 0.5774 -0.5774 0.5774
vn -0.5774 0.5774 0.5774
vn -0.9342 -0.0000 0.3568
vn -0.5774 -0.5774 0.5774
vn -0.3568 0.9342 0.0000
vn -0.5774 0.5774 -0.5774
vn -0.9342 0.0000 -0.3568
vn -0.3568 -0.9342 0.0000
vn -0.5774 -0.5774 -0.5774
vn 0.0000 0.3568 -0.9342
vn 0.0000 -0.3568 -0.9342
vn 0.5774 0.5774 -0.5774
vn 0.9342 0.0000 -0.3568
vn 0.5774 -0.5774 -0.5774
vn 0.3568 0.9342 0.0000
vn 0.3568 -0.9342 0.0000
vn 0.8507 -0.5257 0.0000
vn 0.0000 -0.8507 0.5257
vn -0.0000 -0.8507 -0.5257
vn 0.8507 0.5257 -0.0000
vn 0.0000 0.8507 0.5257
vn 0.0000 0.8507 -0.5257
vn 0.5257 0.0000 -0.8507
vn -0.5257 0.0000 -0.8507
vn -0.8507 -0.5257 0.0000
vn -0.8507 0.5257 0.0000
vn -0.5257 0.0000 0.8507
vn 0.5257 0.0000 0.8507
s off
f 1//1 2//1 3//1
f 1//1 3//1 4//1
f 1//1 4//1 5//1
f 1//1 5//1 6//1
f 6//2 7//2 8//2
f 6//2 8//2 9//2
f 6//2 9//2 10//2
f 6//2 10//2 1//2
f 9//3 11//3 12//3
f 9//3 12//3 13//3
f 9//3 13//3 14//3
f 9//3 14//3 10//3
f 13//4 15//4 16//4
f 13//4 16//4 17//4
f 13//4 17//4 18//4
f 13//4 18//4 14//4
f 17//5 19//5 20//5
f 17//5 20//5 3//5
f 17//5 3//5 2//5
f 17//5 2//5 18//5
f 11//6 21//6 22//6
f 11//6 22//6 23//6
f 11//6 23//6 24//6
f 11//6 24//6 12//6
f 23//7 25//7 26//7
f 23//7 26//7 27//7
f 23//7 27//7 28//7
f 23//7 28//7 24//7
f 27//8 29//8 30//8
f 27//8 30//8 16//8
f 27//8 16//8 15//8
f 27//8 15//8 28//8
f 21//9 31//9 32//9
f 21//9 32//9 33//9
f 21//9 33//9 34//9
f 21//9 34//9 22//9
f 33//10 35//10 36//10
f 33//10 36//10 37//10
f 33//10 37//10 38//10
f 33//10 38//10 34//10
f 37//11 39//11 40//11
f 37//11 40//11 26//11
f 37//11 26//11 25//11
f 37//11 25//11 38//11
f 29//12 41//12 42//12
f 29//12 42//12 43//12
f 29//12 43//12 44//12
f 29//12 44//12 30//12
f 41//13 40//13 39//13
f 41//13 39//13 45//13
f 41//13 45//13 46//13
f 41//13 46//13 42//13
f 35//14 47//14 48//14
f 35//14 48//14 49//14
f 35//14 49//14 50//14
f 35//14 50//14 36//14
f 49//15 51//15 52//15
f 49//15 52//15 46//15
f 49//15 46//15 45//15
f 49//15 45//15 50//15
f 47//16 53//16 54//16
f 47//16 54//16 55//16
f 47//16 55//16 56//16
f 47//16 56//16 48//16
f 55//17 5//17 4//17
f 55//17 4//17 57//17
f 55//17 57//17 58//17
f 55//17 58//17 56//17
f 57//18 59//18 60//18
f 57//18 60//18 52//18
f 57//18 52//18 51//18
f 57//18 51//18 58//18
f 53//19 32//19 31//19
f 53//19 31//19 8//19
f 53//19 8//19 7//19
f 53//19 7//19 54//19
f 59//20 20//20 19//20
f 59//20 19//20 44//20
f 59//20 44//20 43//20
f 59//20 43//20 60//20
f 20//21 59//21 57//21
f 20//21 57//21 4//21
f 20//21 4//21 3//21
f 19//22 17//22 16//22
f 19//22 16//22 30//22
f 19//22 30//22 44//22
f 43//23 42//23 46//23
f 43//23 46//23 52//23
f 43//23 52//23 60//23
f 5//24 55//24 54//24
f 5//24 54//24 7//24
f 5//24 7//24 6//24
f 8//25 31//25 21//25
f 8//25 21//25 11//25
f 8//25 11//25 9//25
f 32//26 53//26 47//26
f 32//26 47//26 35//26
f 32//26 35//26 33//26
f 51//27 49//27 48//27
f 51//27 48//27 56//27
f 51//27 56//27 58//27
f 45//28 39//28 37//28
f 45//28 37//28 36//28
f 45//28 36//28 50//28
f 40//29 41//29 29//29
f 40//29 29//29 27//29
f 40//29 27//29 26//29
f 25//30 23//30 22//30
f 25//30 22//30 34//30
f 25//30 34//30 38//30
f 15//31 13//31 12//31
f 15//31 12//31 24//31
f 15//31 24//31 28//31
f 2//32 1//32 10//32
f 2//32 10//32 14//32
f 2//32 14//32 18//32
