# Blender v2.80 (sub 74) OBJ File: ''
# www.blender.org
o Circle.002_Circle.003
v 5.999999 -11.739679 0.499999
v -0.000001 -0.739678 0.500000
v -0.000001 -11.739677 0.499999
v -6.000000 -0.739677 0.500000
v -6.000000 -11.739676 0.499999
v -5.795556 0.813237 0.500000
v -5.196153 2.260323 0.500000
v -4.242641 3.502964 0.500000
v -3.000001 4.456475 0.500000
v -1.552915 5.055878 0.500000
v -0.000001 5.260323 0.500000
v 1.552917 5.055876 0.500000
v 3.000002 4.456474 0.500000
v 4.242642 3.502961 0.500000
v 5.196153 2.260320 0.500000
v 5.795554 0.813234 0.500000
v 5.999999 -0.739680 0.500000
v -0.000001 -11.739677 -0.500001
v 5.999999 -0.739680 -0.500000
v 5.999999 -11.739679 -0.500001
v -6.000000 -11.739676 -0.500001
v -0.000001 -0.739678 -0.500000
v -6.000000 -0.739677 -0.500000
v -5.795556 0.813237 -0.500000
v -5.196153 2.260323 -0.500000
v -4.242641 3.502964 -0.500000
v -3.000001 4.456475 -0.500000
v -1.552915 5.055878 -0.500000
v -0.000001 5.260323 -0.500000
v 1.552917 5.055877 -0.500000
v 3.000002 4.456474 -0.500000
v 4.242642 3.502961 -0.500000
v 5.196153 2.260320 -0.500000
v 5.795554 0.813234 -0.500000
vt 0.000000 0.000000
vt 0.000000 0.000000
vt 0.000000 0.000000
vt 0.000000 0.000000
vt 0.000000 0.000000
vt 0.000000 0.000000
vt 0.000000 0.000000
vt 0.000000 0.000000
vt 0.000000 0.000000
vt 0.000000 0.000000
vt 0.000000 0.000000
vt 0.000000 0.000000
vt 0.000000 0.000000
vt 0.000000 0.000000
vt 0.000000 0.000000
vt 0.000000 0.000000
vt 0.000000 0.000000
vt 0.000000 0.000000
vt 0.000000 0.000000
vt 0.000000 0.000000
vt 0.000000 0.000000
vt 0.000000 0.000000
vt 0.000000 0.000000
vt 0.000000 0.000000
vt 0.000000 0.000000
vt 0.000000 0.000000
vt 0.000000 0.000000
vt 0.000000 0.000000
vt 0.000000 0.000000
vt 0.000000 0.000000
vt 0.000000 0.000000
vt 0.000000 0.000000
vt 0.000000 0.000000
vt 0.000000 0.000000
vn -0.0000 -0.0000 1.0000
vn -0.0000 0.0000 -1.0000
vn -0.9239 0.3827 0.0000
vn 0.9239 0.3827 0.0000
vn -0.0000 -1.0000 0.0000
vn -0.9914 0.1305 0.0000
vn 0.7934 0.6088 0.0000
vn 0.6088 0.7934 0.0000
vn 0.3827 0.9239 0.0000
vn -0.1305 0.9914 0.0000
vn 0.1305 0.9914 0.0000
vn -0.3827 0.9239 0.0000
vn 1.0000 0.0000 0.0000
vn -0.6088 0.7934 0.0000
vn -1.0000 0.0000 0.0000
vn -0.7934 0.6088 0.0000
vn 0.9914 0.1305 0.0000
s 1
f 1/1/1 2/2/1 3/3/1
f 3/3/1 4/4/1 5/5/1
f 4/4/1 2/2/1 6/6/1
f 7/7/1 6/6/1 2/2/1
f 8/8/1 7/7/1 2/2/1
f 9/9/1 8/8/1 2/2/1
f 10/10/1 9/9/1 2/2/1
f 11/11/1 10/10/1 2/2/1
f 12/12/1 11/11/1 2/2/1
f 13/13/1 12/12/1 2/2/1
f 14/14/1 13/13/1 2/2/1
f 15/15/1 14/14/1 2/2/1
f 16/16/1 15/15/1 2/2/1
f 17/17/1 16/16/1 2/2/1
f 18/18/2 19/19/2 20/20/2
f 21/21/2 22/22/2 18/18/2
f 23/23/2 24/24/2 22/22/2
f 25/25/2 22/22/2 24/24/2
f 26/26/2 22/22/2 25/25/2
f 27/27/2 22/22/2 26/26/2
f 28/28/2 22/22/2 27/27/2
f 29/29/2 22/22/2 28/28/2
f 30/30/2 22/22/2 29/29/2
f 31/31/2 22/22/2 30/30/2
f 32/32/2 22/22/2 31/31/2
f 33/33/2 22/22/2 32/32/2
f 34/34/2 22/22/2 33/33/2
f 19/19/2 22/22/2 34/34/2
f 6/6/3 25/25/3 24/24/3
f 16/16/4 33/33/4 15/15/4
f 3/3/5 20/20/5 1/1/5
f 6/6/6 23/23/6 4/4/6
f 15/15/7 32/32/7 14/14/7
f 14/14/8 31/31/8 13/13/8
f 13/13/9 30/30/9 12/12/9
f 11/11/10 28/28/10 10/10/10
f 5/5/5 18/18/5 3/3/5
f 11/11/11 30/30/11 29/29/11
f 9/9/12 28/28/12 27/27/12
f 1/1/13 19/19/13 17/17/13
f 9/9/14 26/26/14 8/8/14
f 4/4/15 21/21/15 5/5/15
f 8/8/16 25/25/16 7/7/16
f 17/17/17 34/34/17 16/16/17
f 1/1/1 17/17/1 2/2/1
f 3/3/1 2/2/1 4/4/1
f 18/18/2 22/22/2 19/19/2
f 21/21/2 23/23/2 22/22/2
f 6/6/3 7/7/3 25/25/3
f 16/16/4 34/34/4 33/33/4
f 3/3/5 18/18/5 20/20/5
f 6/6/6 24/24/6 23/23/6
f 15/15/7 33/33/7 32/32/7
f 14/14/8 32/32/8 31/31/8
f 13/13/9 31/31/9 30/30/9
f 11/11/10 29/29/10 28/28/10
f 5/5/5 21/21/5 18/18/5
f 11/11/11 12/12/11 30/30/11
f 9/9/12 10/10/12 28/28/12
f 1/1/13 20/20/13 19/19/13
f 9/9/14 27/27/14 26/26/14
f 4/4/15 23/23/15 21/21/15
f 8/8/16 26/26/16 25/25/16
f 17/17/17 19/19/17 34/34/17
