# Blender v2.80 (sub 74) OBJ File: 'temple-of-graphics.blend'
# www.blender.org
o Cube.044_Cube.060
v -12.000000 -12.000000 1.000000
v -12.000000 12.000000 1.000000
v -12.000000 -12.000000 -1.000000
v -12.000000 12.000000 -1.000000
v 12.000000 -12.000000 1.000000
v 12.000000 12.000000 1.000000
v 12.000000 -12.000000 -1.000000
v 12.000000 12.000000 -1.000000
v 0.000000 -19.000000 1.000000
v 0.000000 -19.000000 -1.000000
vt 0.000850 1.001374
vt 0.000850 -1.596777
vt 0.000850 -1.596777
vt 0.000850 1.001374
vt 2.599002 -1.596777
vt 2.599002 1.001374
vt 2.599002 -1.596777
vt 2.599002 1.001374
vt 1.299926 -2.354572
vt 1.299926 -2.354572
vn -1.0000 0.0000 0.0000
vn 0.0000 0.0000 -1.0000
vn 1.0000 0.0000 0.0000
vn 0.0000 0.0000 1.0000
vn 0.0000 1.0000 0.0000
vn -0.5039 -0.8638 0.0000
vn 0.5039 -0.8638 0.0000
s off
f 2/1/1 3/2/1 1/3/1
f 4/4/2 7/5/2 3/2/2
f 8/6/3 5/7/3 7/5/3
f 6/8/4 1/3/4 5/7/4
f 5/7/4 1/3/4 9/9/4
f 4/4/5 6/8/5 8/6/5
f 3/2/2 7/5/2 10/10/2
f 3/2/6 9/9/6 1/3/6
f 5/7/7 10/10/7 7/5/7
f 2/1/1 4/4/1 3/2/1
f 4/4/2 8/6/2 7/5/2
f 8/6/3 6/8/3 5/7/3
f 6/8/4 2/1/4 1/3/4
f 4/4/5 2/1/5 6/8/5
f 3/2/6 10/10/6 9/9/6
f 5/7/7 9/9/7 10/10/7
