# Blender v2.80 (sub 74) OBJ File: 'smooth-shading.blend'
# www.blender.org
o Cube.001_Cube.002
v 2.383098 -0.670319 3.488100
v 2.418397 0.784720 3.504489
v 0.082881 -0.642402 -4.228370
v 0.098548 0.681821 -4.249948
v -0.310481 -0.577639 4.344948
v -0.179707 0.780076 4.204397
v -2.520537 -0.850568 -3.974643
v -2.449543 0.614818 -3.510382
v 0.820415 -1.026629 -2.536792
v 2.452462 -1.607980 -0.801095
v 2.395973 -1.207900 1.319205
v 2.832421 -0.409543 3.571685
v 2.719082 0.041390 3.675851
v 2.774702 0.435807 3.666246
v 2.441402 1.332514 1.889616
v 1.835162 1.251350 -0.645062
v 1.090932 1.335013 -2.386510
v 0.077059 0.343275 -4.509064
v 0.176429 -0.056998 -4.783443
v -0.016744 -0.433500 -4.374245
v -2.054320 -0.755165 -3.962010
v -1.435396 -0.861089 -4.196005
v -0.873130 -0.734112 -4.298048
v -0.836732 1.186099 -4.272455
v -1.488696 1.178035 -4.229343
v -2.084122 0.752820 -3.780061
v -2.833425 0.374959 -3.558360
v -2.946362 0.059134 -3.666979
v -2.772590 -0.321868 -3.467359
v -1.126760 -0.980080 2.610804
v -2.069401 -1.471019 0.850930
v -2.385833 -1.263370 -1.266423
v -2.447621 1.226135 -1.587013
v -1.882463 1.325700 0.720180
v -0.783209 1.164567 2.803566
v -0.377121 0.426570 4.478190
v -0.408911 -0.004186 4.682650
v -0.110396 -0.371426 4.500598
v 1.998684 -0.872035 4.078188
v 1.150762 -0.808305 4.190585
v 0.477467 -0.851064 4.215277
v 0.639380 1.173073 4.290220
v 1.230991 1.197833 4.265295
v 1.924341 1.188373 4.073699
v -2.189739 1.413515 -1.503249
v -1.368004 1.467648 -0.069398
v -0.537120 1.402689 2.812813
v -1.118318 1.390210 -2.277416
v -0.084773 1.556156 0.148893
v 0.566405 1.528606 2.011037
v 0.511862 1.456201 -2.707699
v 1.431494 1.599005 -0.462335
v 1.943374 1.381141 2.265766
v 0.548310 -1.457621 -2.280529
v 1.156826 -1.771382 -0.223866
v 2.170453 -1.788622 2.118820
v -0.936570 -1.515872 -2.080528
v -0.234145 -1.761049 -0.094822
v 0.839609 -1.635097 2.535366
v -1.941536 -1.779572 -1.948487
v -1.952927 -2.300117 0.152745
v -0.875833 -1.651419 2.385057
v 0.699414 -0.518420 4.651703
v 1.608799 -0.573540 4.665809
v 2.270756 -0.458988 4.161135
v 0.581854 -0.065664 4.949640
v 1.250288 -0.002220 4.758892
v 2.281136 0.069649 4.234716
v 0.490577 0.516497 4.702256
v 1.216496 0.540026 4.376004
v 2.369663 0.700202 4.511541
v -2.594679 -0.838546 -1.434934
v -2.179756 -0.909712 0.889249
v -1.236970 -0.519527 2.548700
v -2.997073 0.152311 -1.287136
v -2.621129 -0.071612 0.692476
v -1.639467 0.169084 3.059892
v -2.602344 0.743174 -1.347054
v -2.477171 1.241879 0.223600
v -1.285681 0.820866 2.398533
v -0.782674 -0.518480 -4.429092
v -1.560985 -0.562508 -4.401406
v -2.090231 -0.429465 -4.018941
v -0.620524 0.022295 -5.041390
v -1.810540 -0.079449 -4.927278
v -2.504838 -0.050453 -4.255451
v -0.680166 0.424381 -4.642719
v -1.556159 0.421140 -4.371991
v -2.267314 0.481284 -4.205539
v 3.177991 -0.686633 1.547688
v 2.693937 -0.810848 -1.475591
v 2.241092 -1.003425 -2.999713
v 3.602347 -0.117043 1.077234
v 2.891440 -0.317587 -0.938473
v 2.475357 -0.030498 -2.847801
v 2.998840 0.697358 1.409970
v 3.041615 1.175421 -1.207801
v 2.059605 0.777731 -2.950044
vt 0.562500 0.187500
vt 0.625000 0.250000
vt 0.625000 0.187500
vt 0.562500 0.437500
vt 0.625000 0.500000
vt 0.625000 0.437500
vt 0.562500 0.750000
vt 0.625000 0.687500
vt 0.562500 0.687500
vt 0.562500 0.937500
vt 0.625000 1.000000
vt 0.625000 0.937500
vt 0.312500 0.750000
vt 0.375000 0.687500
vt 0.312500 0.687500
vt 0.812500 0.687500
vt 0.875000 0.750000
vt 0.875000 0.687500
vt 0.625000 0.750000
vt 0.687500 0.687500
vt 0.687500 0.750000
vt 0.750000 0.687500
vt 0.750000 0.750000
vt 0.687500 0.562500
vt 0.687500 0.500000
vt 0.625000 0.625000
vt 0.625000 0.562500
vt 0.687500 0.625000
vt 0.750000 0.562500
vt 0.750000 0.500000
vt 0.750000 0.625000
vt 0.812500 0.500000
vt 0.812500 0.562500
vt 0.812500 0.625000
vt 0.875000 0.500000
vt 0.875000 0.562500
vt 0.875000 0.625000
vt 0.125000 0.750000
vt 0.187500 0.687500
vt 0.125000 0.687500
vt 0.187500 0.750000
vt 0.250000 0.687500
vt 0.125000 0.500000
vt 0.187500 0.562500
vt 0.187500 0.500000
vt 0.125000 0.625000
vt 0.125000 0.562500
vt 0.187500 0.625000
vt 0.250000 0.562500
vt 0.250000 0.500000
vt 0.250000 0.625000
vt 0.312500 0.500000
vt 0.312500 0.562500
vt 0.312500 0.625000
vt 0.375000 0.500000
vt 0.375000 0.562500
vt 0.375000 0.625000
vt 0.375000 1.000000
vt 0.437500 0.937500
vt 0.375000 0.937500
vt 0.500000 1.000000
vt 0.500000 0.937500
vt 0.562500 1.000000
vt 0.375000 0.812500
vt 0.437500 0.750000
vt 0.375000 0.750000
vt 0.375000 0.875000
vt 0.437500 0.812500
vt 0.437500 0.875000
vt 0.500000 0.812500
vt 0.500000 0.750000
vt 0.500000 0.875000
vt 0.562500 0.812500
vt 0.562500 0.875000
vt 0.625000 0.812500
vt 0.625000 0.875000
vt 0.437500 0.687500
vt 0.500000 0.687500
vt 0.437500 0.562500
vt 0.437500 0.500000
vt 0.437500 0.625000
vt 0.500000 0.562500
vt 0.500000 0.500000
vt 0.500000 0.625000
vt 0.562500 0.500000
vt 0.562500 0.625000
vt 0.562500 0.562500
vt 0.437500 0.437500
vt 0.375000 0.437500
vt 0.500000 0.437500
vt 0.375000 0.250000
vt 0.437500 0.312500
vt 0.437500 0.250000
vt 0.375000 0.312500
vt 0.437500 0.375000
vt 0.375000 0.375000
vt 0.500000 0.312500
vt 0.500000 0.250000
vt 0.500000 0.375000
vt 0.562500 0.250000
vt 0.562500 0.312500
vt 0.562500 0.375000
vt 0.625000 0.312500
vt 0.625000 0.375000
vt 0.437500 0.187500
vt 0.375000 0.187500
vt 0.500000 0.187500
vt 0.375000 0.000000
vt 0.437500 0.062500
vt 0.437500 0.000000
vt 0.375000 0.125000
vt 0.375000 0.062500
vt 0.437500 0.125000
vt 0.500000 0.000000
vt 0.500000 0.125000
vt 0.500000 0.062500
vt 0.562500 0.062500
vt 0.562500 0.000000
vt 0.562500 0.125000
vt 0.625000 0.000000
vt 0.625000 0.125000
vt 0.625000 0.062500
vt 0.812500 0.750000
vt 0.250000 0.750000
vt 0.437500 1.000000
vn 0.5427 0.6014 -0.5863
vn 0.3688 0.6405 -0.6735
vn 0.2977 0.9083 -0.2937
vn -0.4407 0.6873 -0.5773
vn -0.5308 0.8178 -0.2221
vn -0.4862 0.8063 -0.3369
vn -0.5062 0.5372 0.6747
vn -0.6738 0.6085 0.4191
vn -0.7123 0.5886 0.3822
vn 0.5027 0.2581 0.8250
vn 0.6695 0.7319 0.1270
vn 0.3056 0.8479 0.4331
vn -0.1037 -0.8327 0.5439
vn -0.7692 -0.3385 0.5419
vn -0.3678 -0.8209 0.4369
vn 0.2105 0.9659 0.1506
vn 0.5305 0.8427 0.0915
vn -0.4487 0.6986 0.5572
vn -0.3533 0.8904 0.2869
vn -0.0837 0.7764 0.6247
vn 0.0081 0.9967 0.0805
vn 0.1094 0.7012 0.7045
vn -0.3484 0.9349 -0.0667
vn -0.3264 0.9192 0.2202
vn -0.7782 0.6203 -0.0979
vn -0.1094 0.9937 0.0235
vn -0.1198 0.9858 -0.1172
vn -0.3763 0.7058 -0.6002
vn -0.0528 0.9986 0.0021
vn 0.0552 0.7732 -0.6317
vn 0.2044 0.9374 -0.2819
vn 0.2937 0.9508 -0.0984
vn 0.3841 0.9215 -0.0562
vn 0.6476 -0.7085 0.2804
vn 0.5406 -0.8332 0.1161
vn 0.6257 -0.7792 0.0352
vn 0.4268 -0.7617 0.4875
vn -0.0153 -0.9644 0.2641
vn 0.2474 -0.6894 -0.6808
vn 0.2257 -0.8993 -0.3744
vn 0.0718 -0.7563 -0.6502
vn 0.5432 -0.8171 -0.1928
vn 0.3463 -0.8551 -0.3858
vn 0.0829 -0.9959 -0.0360
vn 0.0949 -0.9565 -0.2757
vn -0.1157 -0.8258 -0.5520
vn 0.1159 -0.9919 -0.0524
vn -0.1438 -0.6729 -0.7256
vn -0.3078 -0.9156 -0.2585
vn -0.4526 -0.8871 0.0905
vn -0.5258 -0.4295 -0.7342
vn -0.8892 -0.4573 0.0094
vn -0.8733 -0.3297 0.3586
vn 0.6985 -0.3632 0.6166
vn 0.8955 -0.0115 0.4449
vn 0.5979 -0.1416 0.7889
vn 0.9257 0.2562 0.2783
vn -0.3932 -0.5685 0.7226
vn -0.6495 -0.3291 0.6854
vn 0.0099 -0.8804 0.4742
vn -0.0522 -0.6460 0.7615
vn 0.2613 -0.4674 0.8445
vn -0.0025 -0.1052 0.9944
vn -0.5718 -0.1563 0.8054
vn 0.2797 0.1982 0.9394
vn -0.0161 0.5000 0.8659
vn 0.2158 0.3817 0.8987
vn -0.7973 -0.3950 0.4563
vn -0.8700 0.0378 0.4916
vn -0.9113 -0.4090 0.0482
vn -0.8817 -0.4174 -0.2199
vn -0.8905 -0.2843 0.3551
vn -0.9972 0.0637 0.0381
vn -0.9315 -0.0301 -0.3623
vn -0.9358 -0.0916 0.3403
vn -0.7530 0.6068 -0.2542
vn -0.6779 0.7080 0.1977
vn -0.8932 0.4462 -0.0555
vn -0.5120 -0.4380 -0.7389
vn -0.7261 -0.2368 -0.6455
vn 0.0659 -0.6524 -0.7550
vn 0.2626 -0.6346 -0.7268
vn -0.2514 -0.6728 -0.6957
vn 0.0933 -0.0082 -0.9956
vn 0.4427 -0.1522 -0.8836
vn -0.3712 -0.0792 -0.9252
vn 0.3264 0.5924 -0.7366
vn 0.0181 0.6110 -0.7914
vn -0.2517 0.6064 -0.7542
vn 0.5534 -0.6884 -0.4688
vn 0.8266 0.0280 -0.5621
vn 0.7500 -0.6421 0.1585
vn 0.8467 -0.3665 0.3857
vn 0.8253 -0.4752 -0.3049
vn 0.9763 -0.1430 -0.1625
vn 0.9963 0.0107 -0.0845
vn 0.7919 0.6101 0.0256
vn 0.7691 0.6274 -0.1214
s 1
f 98/1/1 4/2/2 17/3/3
f 89/4/4 8/5/5 26/6/6
f 36/7/7 35/8/8 80/9/9
f 71/10/10 2/11/11 44/12/12
f 41/13/13 30/14/14 62/15/15
f 53/16/16 2/17/11 15/18/17
f 6/19/18 47/20/19 35/8/8
f 42/21/20 50/22/21 47/20/19
f 43/23/22 53/16/16 50/22/21
f 8/5/5 45/24/23 26/25/6
f 34/26/24 45/24/23 33/27/25
f 34/26/24 47/20/19 46/28/26
f 26/25/6 48/29/27 25/30/28
f 46/28/26 48/29/27 45/24/23
f 47/20/19 49/31/29 46/28/26
f 48/29/27 24/32/30 25/30/28
f 49/31/29 51/33/31 48/29/27
f 50/22/21 52/34/32 49/31/29
f 51/33/31 4/35/2 24/32/30
f 52/34/32 17/36/3 51/33/31
f 52/34/32 15/18/17 16/37/33
f 1/38/34 56/39/35 11/40/36
f 39/41/37 59/42/38 56/39/35
f 59/42/38 41/13/13 62/15/15
f 3/43/39 54/44/40 23/45/41
f 10/46/42 54/44/40 9/47/43
f 11/40/36 55/48/44 10/46/42
f 23/45/41 57/49/45 22/50/46
f 54/44/40 58/51/47 57/49/45
f 55/48/44 59/42/38 58/51/47
f 57/49/45 21/52/48 22/50/46
f 58/51/47 60/53/49 57/49/45
f 58/51/47 62/15/15 61/54/50
f 60/53/49 7/55/51 21/52/48
f 61/54/50 32/56/52 60/53/49
f 62/15/15 31/57/53 61/54/50
f 1/58/34 65/59/54 39/60/37
f 65/59/54 13/61/55 68/62/56
f 68/62/56 14/63/57 71/10/10
f 41/64/13 38/65/58 5/66/59
f 40/67/60 63/68/61 41/64/13
f 39/60/37 64/69/62 40/67/60
f 38/65/58 66/70/63 37/71/64
f 63/68/61 67/72/65 66/70/63
f 64/69/62 68/62/56 67/72/65
f 37/71/64 69/73/66 36/7/7
f 67/72/65 69/73/66 66/70/63
f 68/62/56 70/74/67 67/72/65
f 69/73/66 6/19/18 36/7/7
f 70/74/67 42/75/20 69/73/66
f 70/74/67 44/12/12 43/76/22
f 5/66/59 74/77/68 30/14/14
f 38/65/58 77/78/69 74/77/68
f 77/78/69 36/7/7 80/9/9
f 7/55/51 72/79/70 29/80/71
f 32/56/52 73/81/72 72/79/70
f 30/14/14 73/81/72 31/57/53
f 29/80/71 75/82/73 28/83/74
f 72/79/70 76/84/75 75/82/73
f 74/77/68 76/84/75 73/81/72
f 75/82/73 27/85/76 28/83/74
f 75/82/73 79/86/77 78/87/78
f 76/84/75 80/9/9 79/86/77
f 78/87/78 8/5/5 27/85/76
f 79/86/77 33/27/25 78/87/78
f 80/9/9 34/26/24 79/86/77
f 7/55/51 83/88/79 21/89/48
f 29/80/71 86/90/80 83/88/79
f 86/90/80 27/85/76 89/4/4
f 3/91/39 81/92/81 20/93/82
f 23/94/41 82/95/83 81/92/81
f 21/89/48 82/95/83 22/96/46
f 20/93/82 84/97/84 19/98/85
f 81/92/81 85/99/86 84/97/84
f 83/88/79 85/99/86 82/95/83
f 84/97/84 18/100/87 19/98/85
f 85/99/86 87/101/88 84/97/84
f 85/99/86 89/4/4 88/102/89
f 87/101/88 4/2/2 18/100/87
f 88/102/89 24/103/30 87/101/88
f 88/102/89 26/6/6 25/104/28
f 3/91/39 92/105/90 9/106/43
f 20/93/82 95/107/91 92/105/90
f 19/98/85 98/1/1 95/107/91
f 1/108/34 90/109/92 12/110/93
f 10/111/42 90/109/92 11/112/36
f 9/106/43 91/113/94 10/111/42
f 90/109/92 13/114/55 12/110/93
f 90/109/92 94/115/95 93/116/96
f 91/113/94 95/107/91 94/115/95
f 13/114/55 96/117/97 14/118/57
f 94/115/95 96/117/97 93/116/96
f 95/107/91 97/119/98 94/115/95
f 96/117/97 2/120/11 14/118/57
f 96/117/97 16/121/33 15/122/17
f 97/119/98 17/3/3 16/121/33
f 98/1/1 18/100/87 4/2/2
f 89/4/4 27/85/76 8/5/5
f 36/7/7 6/19/18 35/8/8
f 71/10/10 14/63/57 2/11/11
f 41/13/13 5/66/59 30/14/14
f 53/16/16 44/123/12 2/17/11
f 6/19/18 42/21/20 47/20/19
f 42/21/20 43/23/22 50/22/21
f 43/23/22 44/123/12 53/16/16
f 8/5/5 33/27/25 45/24/23
f 34/26/24 46/28/26 45/24/23
f 34/26/24 35/8/8 47/20/19
f 26/25/6 45/24/23 48/29/27
f 46/28/26 49/31/29 48/29/27
f 47/20/19 50/22/21 49/31/29
f 48/29/27 51/33/31 24/32/30
f 49/31/29 52/34/32 51/33/31
f 50/22/21 53/16/16 52/34/32
f 51/33/31 17/36/3 4/35/2
f 52/34/32 16/37/33 17/36/3
f 52/34/32 53/16/16 15/18/17
f 1/38/34 39/41/37 56/39/35
f 39/41/37 40/124/60 59/42/38
f 59/42/38 40/124/60 41/13/13
f 3/43/39 9/47/43 54/44/40
f 10/46/42 55/48/44 54/44/40
f 11/40/36 56/39/35 55/48/44
f 23/45/41 54/44/40 57/49/45
f 54/44/40 55/48/44 58/51/47
f 55/48/44 56/39/35 59/42/38
f 57/49/45 60/53/49 21/52/48
f 58/51/47 61/54/50 60/53/49
f 58/51/47 59/42/38 62/15/15
f 60/53/49 32/56/52 7/55/51
f 61/54/50 31/57/53 32/56/52
f 62/15/15 30/14/14 31/57/53
f 1/58/34 12/125/93 65/59/54
f 65/59/54 12/125/93 13/61/55
f 68/62/56 13/61/55 14/63/57
f 41/64/13 63/68/61 38/65/58
f 40/67/60 64/69/62 63/68/61
f 39/60/37 65/59/54 64/69/62
f 38/65/58 63/68/61 66/70/63
f 63/68/61 64/69/62 67/72/65
f 64/69/62 65/59/54 68/62/56
f 37/71/64 66/70/63 69/73/66
f 67/72/65 70/74/67 69/73/66
f 68/62/56 71/10/10 70/74/67
f 69/73/66 42/75/20 6/19/18
f 70/74/67 43/76/22 42/75/20
f 70/74/67 71/10/10 44/12/12
f 5/66/59 38/65/58 74/77/68
f 38/65/58 37/71/64 77/78/69
f 77/78/69 37/71/64 36/7/7
f 7/55/51 32/56/52 72/79/70
f 32/56/52 31/57/53 73/81/72
f 30/14/14 74/77/68 73/81/72
f 29/80/71 72/79/70 75/82/73
f 72/79/70 73/81/72 76/84/75
f 74/77/68 77/78/69 76/84/75
f 75/82/73 78/87/78 27/85/76
f 75/82/73 76/84/75 79/86/77
f 76/84/75 77/78/69 80/9/9
f 78/87/78 33/27/25 8/5/5
f 79/86/77 34/26/24 33/27/25
f 80/9/9 35/8/8 34/26/24
f 7/55/51 29/80/71 83/88/79
f 29/80/71 28/83/74 86/90/80
f 86/90/80 28/83/74 27/85/76
f 3/91/39 23/94/41 81/92/81
f 23/94/41 22/96/46 82/95/83
f 21/89/48 83/88/79 82/95/83
f 20/93/82 81/92/81 84/97/84
f 81/92/81 82/95/83 85/99/86
f 83/88/79 86/90/80 85/99/86
f 84/97/84 87/101/88 18/100/87
f 85/99/86 88/102/89 87/101/88
f 85/99/86 86/90/80 89/4/4
f 87/101/88 24/103/30 4/2/2
f 88/102/89 25/104/28 24/103/30
f 88/102/89 89/4/4 26/6/6
f 3/91/39 20/93/82 92/105/90
f 20/93/82 19/98/85 95/107/91
f 19/98/85 18/100/87 98/1/1
f 1/108/34 11/112/36 90/109/92
f 10/111/42 91/113/94 90/109/92
f 9/106/43 92/105/90 91/113/94
f 90/109/92 93/116/96 13/114/55
f 90/109/92 91/113/94 94/115/95
f 91/113/94 92/105/90 95/107/91
f 13/114/55 93/116/96 96/117/97
f 94/115/95 97/119/98 96/117/97
f 95/107/91 98/1/1 97/119/98
f 96/117/97 15/122/17 2/120/11
f 96/117/97 97/119/98 16/121/33
f 97/119/98 98/1/1 17/3/3
