# Blender v2.80 (sub 74) OBJ File: 'robot.blend'
# www.blender.org
o Cylinder.004
v 0.000000 -0.154711 -0.154711
v 0.000000 0.154711 -0.154711
v 0.059206 -0.154711 -0.142935
v 0.059206 0.154711 -0.142935
v 0.109398 -0.154711 -0.109397
v 0.109398 0.154711 -0.109397
v 0.142935 -0.154711 -0.059206
v 0.142935 0.154711 -0.059206
v 0.154712 -0.154711 0.000000
v 0.154712 0.154711 0.000000
v 0.142935 -0.154711 0.059206
v 0.142935 0.154711 0.059206
v 0.109398 -0.154711 0.109398
v 0.109398 0.154711 0.109398
v 0.059206 -0.154711 0.142935
v 0.059206 0.154711 0.142935
v 0.000000 -0.154711 0.154711
v 0.000000 0.154711 0.154711
v -0.059205 -0.154711 0.142935
v -0.059205 0.154711 0.142935
v -0.109397 -0.154711 0.109398
v -0.109397 0.154711 0.109398
v -0.142935 -0.154711 0.059206
v -0.142935 0.154711 0.059206
v -0.154711 -0.154711 0.000000
v -0.154711 0.154711 0.000000
v -0.142935 -0.154711 -0.059206
v -0.142935 0.154711 -0.059206
v -0.109397 -0.154711 -0.109398
v -0.109397 0.154711 -0.109398
v -0.059205 -0.154711 -0.142935
v -0.059205 0.154711 -0.142935
v 0.000000 0.204711 -0.123769
v 0.047365 0.204711 -0.114348
v 0.087518 0.204711 -0.087518
v 0.114348 0.204711 -0.047364
v 0.123769 0.204711 0.000000
v 0.114348 0.204711 0.047364
v 0.087518 0.204711 0.087518
v 0.047365 0.204711 0.114348
v 0.000000 0.204711 0.123769
v -0.047364 0.204711 0.114348
v -0.087518 0.204711 0.087518
v -0.114348 0.204711 0.047364
v -0.123769 0.204711 0.000000
v -0.114348 0.204711 -0.047364
v -0.087518 0.204711 -0.087518
v -0.047364 0.204711 -0.114348
vt 1.000000 1.000000
vt 0.937500 0.500000
vt 1.000000 0.500000
vt 0.937500 1.000000
vt 0.875000 0.500000
vt 0.875000 1.000000
vt 0.812500 0.500000
vt 0.812500 1.000000
vt 0.750000 0.500000
vt 0.750000 1.000000
vt 0.687500 0.500000
vt 0.687500 1.000000
vt 0.625000 0.500000
vt 0.625000 1.000000
vt 0.562500 0.500000
vt 0.562500 1.000000
vt 0.500000 0.500000
vt 0.500000 1.000000
vt 0.437500 0.500000
vt 0.437500 1.000000
vt 0.375000 0.500000
vt 0.375000 1.000000
vt 0.312500 0.500000
vt 0.312500 1.000000
vt 0.250000 0.500000
vt 0.250000 1.000000
vt 0.187500 0.500000
vt 0.187500 1.000000
vt 0.125000 0.500000
vt 0.625000 1.000000
vt 0.125000 1.000000
vt 0.062500 0.500000
vt 0.062500 1.000000
vt 0.000000 0.500000
vt 0.841844 0.028269
vt 0.528269 0.158156
vt 0.658156 0.471731
vt 0.080294 0.419706
vt 0.080294 0.080294
vt 0.419706 0.080294
vt 0.375000 1.000000
vt 0.312500 1.000000
vt 0.000000 1.000000
vt 0.062500 1.000000
vt 0.000000 1.000000
vt 0.750000 1.000000
vt 0.437500 1.000000
vt 0.125000 1.000000
vt 0.875000 1.000000
vt 0.562500 1.000000
vt 0.250000 1.000000
vt 0.687500 1.000000
vt 0.812500 1.000000
vt 0.500000 1.000000
vt 0.937500 1.000000
vt 0.187500 1.000000
vt 0.750000 0.490000
vt 0.841844 0.471731
vt 0.919706 0.419706
vt 0.971731 0.341844
vt 0.990000 0.250000
vt 0.971731 0.158156
vt 0.919706 0.080294
vt 0.750000 0.010000
vt 0.658156 0.028269
vt 0.580294 0.080294
vt 0.510000 0.250000
vt 0.528269 0.341844
vt 0.580294 0.419706
vt 0.419706 0.419706
vt 0.341844 0.471731
vt 0.250000 0.490000
vt 0.158156 0.471731
vt 0.028269 0.341844
vt 0.010000 0.250000
vt 0.028269 0.158156
vt 0.158156 0.028269
vt 0.250000 0.010000
vt 0.341844 0.028269
vt 0.471731 0.158156
vt 0.490000 0.250000
vt 0.471731 0.341844
vt 1.000000 1.000000
vn 0.0000 0.2650 -0.9642
vn 0.2855 -0.6657 -0.6894
vn 0.0000 -0.6657 -0.7462
vn 0.3690 0.2650 -0.8908
vn 0.5276 -0.6657 -0.5276
vn 0.6818 0.2650 -0.6818
vn 0.6894 -0.6657 -0.2855
vn 0.8908 0.2650 -0.3690
vn 0.7462 -0.6657 0.0000
vn 0.9642 0.2650 0.0000
vn 0.6894 -0.6657 0.2855
vn 0.8908 0.2650 0.3690
vn 0.5276 -0.6657 0.5276
vn 0.6818 0.2650 0.6818
vn 0.2855 -0.6657 0.6894
vn 0.3690 0.2650 0.8908
vn 0.0000 -0.6657 0.7462
vn 0.0000 0.2650 0.9642
vn -0.2855 -0.6657 0.6894
vn -0.3690 0.2650 0.8908
vn -0.5276 -0.6657 0.5276
vn -0.6818 0.2650 0.6818
vn -0.6894 -0.6657 0.2855
vn -0.8908 0.2650 0.3690
vn -0.7462 -0.6657 0.0000
vn -0.9642 0.2650 0.0000
vn -0.6894 -0.6657 -0.2855
vn -0.8908 0.2650 -0.3690
vn -0.5276 -0.6657 -0.5276
vn 0.3750 0.8477 0.3750
vn -0.6818 0.2650 -0.6818
vn -0.2855 -0.6657 -0.6894
vn -0.3690 0.2650 -0.8908
vn -0.3750 0.8477 -0.3750
vn -0.3750 0.8477 0.3750
vn -0.4900 0.8477 0.2029
vn -0.2029 0.8477 -0.4900
vn 0.0000 0.8477 -0.5304
vn 0.5304 0.8477 0.0000
vn -0.2029 0.8477 0.4900
vn 0.3750 0.8477 -0.3750
vn 0.2029 0.8477 0.4900
vn -0.5304 0.8477 0.0000
vn 0.4900 0.8477 0.2029
vn 0.4900 0.8477 -0.2029
vn 0.0000 0.8477 0.5304
vn 0.2029 0.8477 -0.4900
vn -0.4900 0.8477 -0.2029
s 1
f 2/1/1 3/2/2 1/3/3
f 4/4/4 5/5/5 3/2/2
f 6/6/6 7/7/7 5/5/5
f 8/8/8 9/9/9 7/7/7
f 10/10/10 11/11/11 9/9/9
f 12/12/12 13/13/13 11/11/11
f 14/14/14 15/15/15 13/13/13
f 16/16/16 17/17/17 15/15/15
f 18/18/18 19/19/19 17/17/17
f 20/20/20 21/21/21 19/19/19
f 22/22/22 23/23/23 21/21/21
f 24/24/24 25/25/25 23/23/23
f 26/26/26 27/27/27 25/25/25
f 28/28/28 29/29/29 27/27/27
f 12/12/12 39/30/30 14/14/14
f 30/31/31 31/32/32 29/29/29
f 32/33/33 1/34/3 31/32/32
f 15/35/15 23/36/23 31/37/32
f 47/38/34 43/39/35 39/40/30
f 24/24/24 43/41/35 44/42/36
f 2/43/1 48/44/37 33/45/38
f 8/8/8 37/46/39 10/10/10
f 18/18/18 42/47/40 20/20/20
f 28/28/28 47/48/34 30/31/31
f 4/4/4 35/49/41 6/6/6
f 14/14/14 40/50/42 16/16/16
f 24/24/24 45/51/43 26/26/26
f 10/10/10 38/52/44 12/12/12
f 20/20/20 43/41/35 22/22/22
f 30/31/31 48/44/37 32/33/33
f 6/6/6 36/53/45 8/8/8
f 18/18/18 40/50/42 41/54/46
f 2/1/1 34/55/47 4/4/4
f 28/28/28 45/51/43 46/56/48
f 2/1/1 4/4/4 3/2/2
f 4/4/4 6/6/6 5/5/5
f 6/6/6 8/8/8 7/7/7
f 8/8/8 10/10/10 9/9/9
f 10/10/10 12/12/12 11/11/11
f 12/12/12 14/14/14 13/13/13
f 14/14/14 16/16/16 15/15/15
f 16/16/16 18/18/18 17/17/17
f 18/18/18 20/20/20 19/19/19
f 20/20/20 22/22/22 21/21/21
f 22/22/22 24/24/24 23/23/23
f 24/24/24 26/26/26 25/25/25
f 26/26/26 28/28/28 27/27/27
f 28/28/28 30/31/31 29/29/29
f 12/12/12 38/52/44 39/30/30
f 30/31/31 32/33/33 31/32/32
f 32/33/33 2/43/1 1/34/3
f 31/37/32 1/57/3 3/58/2
f 3/58/2 5/59/5 7/60/7
f 7/60/7 9/61/9 15/35/15
f 9/61/9 11/62/11 15/35/15
f 11/62/11 13/63/13 15/35/15
f 15/35/15 17/64/17 23/36/23
f 17/64/17 19/65/19 23/36/23
f 19/65/19 21/66/21 23/36/23
f 23/36/23 25/67/25 27/68/27
f 27/68/27 29/69/29 23/36/23
f 29/69/29 31/37/32 23/36/23
f 31/37/32 3/58/2 15/35/15
f 3/58/2 7/60/7 15/35/15
f 35/70/41 34/71/47 47/38/34
f 34/71/47 33/72/38 47/38/34
f 33/72/38 48/73/37 47/38/34
f 47/38/34 46/74/48 45/75/43
f 45/75/43 44/76/36 47/38/34
f 44/76/36 43/39/35 47/38/34
f 43/39/35 42/77/40 41/78/46
f 41/78/46 40/79/42 39/40/30
f 39/40/30 38/80/44 37/81/39
f 37/81/39 36/82/45 35/70/41
f 43/39/35 41/78/46 39/40/30
f 39/40/30 37/81/39 35/70/41
f 35/70/41 47/38/34 39/40/30
f 24/24/24 22/22/22 43/41/35
f 2/43/1 32/33/33 48/44/37
f 8/8/8 36/53/45 37/46/39
f 18/18/18 41/54/46 42/47/40
f 28/28/28 46/56/48 47/48/34
f 4/4/4 34/55/47 35/49/41
f 14/14/14 39/30/30 40/50/42
f 24/24/24 44/42/36 45/51/43
f 10/10/10 37/46/39 38/52/44
f 20/20/20 42/47/40 43/41/35
f 30/31/31 47/48/34 48/44/37
f 6/6/6 35/49/41 36/53/45
f 18/18/18 16/16/16 40/50/42
f 2/1/1 33/83/38 34/55/47
f 28/28/28 26/26/26 45/51/43
