# Blender v2.80 (sub 74) OBJ File: 'robot.blend'
# www.blender.org
o Plane.014_Plane.009
v -0.200000 0.000000 0.250123
v -0.258779 0.000000 0.231517
v -0.295106 0.000000 0.184661
v -0.200000 -0.100000 0.159901
v -0.200000 0.100000 0.159901
v 0.200000 0.100000 0.159901
v -0.200000 -0.000000 -0.257117
v -0.258779 -0.000000 -0.240156
v -0.200000 -0.100000 -0.176799
v -0.295106 -0.000000 -0.197219
v -0.200000 0.100000 -0.176799
v 0.295106 -0.000000 -0.197219
v 0.258779 -0.000000 -0.240156
v 0.200000 -0.000000 -0.257117
v 0.200000 -0.100000 -0.176799
v 0.200000 0.100000 -0.176799
v 0.200000 -0.100000 0.159901
v 0.295106 -0.000000 0.184661
v 0.258779 -0.000000 0.231517
v 0.200000 -0.000000 0.250123
vt 0.000000 0.000000
vt 0.000000 0.000000
vt 0.000000 0.000000
vt 0.000000 0.000000
vt 0.000000 0.000000
vt 0.000000 0.000000
vt 0.000000 0.000000
vt 0.000000 0.000000
vt 0.000000 0.000000
vt 0.000000 0.000000
vt 0.000000 0.000000
vt 0.000000 0.000000
vt 0.000000 0.000000
vt 0.000000 0.000000
vt 0.000000 0.000000
vt 0.000000 0.000000
vt 0.000000 0.000000
vt 0.000000 0.000000
vt 0.000000 0.000000
vt 0.000000 0.000000
vn -0.2288 0.6521 0.7228
vn -0.2288 -0.6521 0.7228
vn -0.5865 0.6703 0.4547
vn -0.5865 -0.6703 0.4547
vn 0.7246 -0.6892 -0.0000
vn -0.0000 -0.6699 0.7425
vn 0.0000 0.6699 0.7425
vn 0.7246 0.6892 -0.0000
vn -0.0000 -1.0000 -0.0000
vn 0.0000 0.6262 -0.7797
vn 0.5794 -0.6511 -0.4902
vn 0.5794 0.6511 -0.4902
vn 0.2195 -0.6109 -0.7606
vn 0.2195 0.6109 -0.7606
vn -0.2195 -0.6109 -0.7606
vn -0.2195 0.6109 -0.7606
vn -0.5794 -0.6511 -0.4902
vn -0.5794 0.6511 -0.4902
vn 0.0000 -0.6262 -0.7797
vn 0.5865 0.6703 0.4547
vn 0.5865 -0.6703 0.4547
vn 0.2288 0.6521 0.7228
vn 0.2288 -0.6521 0.7228
vn -0.7246 -0.6892 0.0000
vn -0.7246 0.6892 0.0000
vn 0.0000 1.0000 -0.0000
s off
f 1/1/1 5/2/1 2/3/1
f 4/4/2 1/1/2 2/3/2
f 2/3/3 5/2/3 3/5/3
f 4/4/4 2/3/4 3/5/4
f 12/6/5 17/7/5 15/8/5
f 4/4/6 20/9/6 1/1/6
f 1/1/7 6/10/7 5/2/7
f 6/10/8 12/6/8 16/11/8
f 4/4/9 15/8/9 17/7/9
f 16/11/10 7/12/10 11/13/10
f 15/8/11 13/14/11 12/6/11
f 13/14/12 16/11/12 12/6/12
f 15/8/13 14/15/13 13/14/13
f 14/15/14 16/11/14 13/14/14
f 7/12/15 9/16/15 8/17/15
f 11/13/16 7/12/16 8/17/16
f 8/17/17 9/16/17 10/18/17
f 11/13/18 8/17/18 10/18/18
f 9/16/19 14/15/19 15/8/19
f 6/10/20 19/19/20 18/20/20
f 19/19/21 17/7/21 18/20/21
f 6/10/22 20/9/22 19/19/22
f 20/9/23 17/7/23 19/19/23
f 4/4/24 10/18/24 9/16/24
f 10/18/25 5/2/25 11/13/25
f 11/13/26 6/10/26 16/11/26
f 12/6/5 18/20/5 17/7/5
f 4/4/6 17/7/6 20/9/6
f 1/1/7 20/9/7 6/10/7
f 6/10/8 18/20/8 12/6/8
f 4/4/9 9/16/9 15/8/9
f 16/11/10 14/15/10 7/12/10
f 9/16/19 7/12/19 14/15/19
f 4/4/24 3/5/24 10/18/24
f 10/18/25 3/5/25 5/2/25
f 11/13/26 5/2/26 6/10/26
