# Blender v2.80 (sub 74) OBJ File: 'robot.blend'
# www.blender.org
o Circle_Circle.001
v -0.000000 0.203353 0.429357
v -0.091844 0.185153 0.427765
v -0.169706 0.133326 0.423231
v -0.221731 0.055761 0.416445
v -0.240000 -0.035734 0.408440
v -0.221731 -0.127228 0.400435
v -0.169706 -0.204794 0.393649
v -0.091844 -0.256621 0.389115
v -0.000000 -0.274821 0.387522
v 0.091844 -0.256621 0.389115
v 0.169706 -0.204794 0.393649
v 0.221731 -0.127228 0.400435
v 0.240000 -0.035734 0.408440
v 0.221731 0.055761 0.416445
v 0.169706 0.133326 0.423231
v 0.091844 0.185154 0.427765
v -0.000000 -0.040963 0.468212
vt 0.000000 0.000000
vt 0.000000 0.000000
vt 0.000000 0.000000
vt 0.000000 0.000000
vt 0.000000 0.000000
vt 0.000000 0.000000
vt 0.000000 0.000000
vt 0.000000 0.000000
vt 0.000000 0.000000
vt 0.000000 0.000000
vt 0.000000 0.000000
vt 0.000000 0.000000
vt 0.000000 0.000000
vt 0.000000 0.000000
vt 0.000000 0.000000
vt 0.000000 0.000000
vt 0.000000 0.000000
vn -0.1715 0.2554 -0.9515
vn -0.0928 0.3077 -0.9469
vn 0.0000 0.0871 -0.9962
vn 0.2241 -0.0079 -0.9745
vn 0.1715 -0.0863 -0.9814
vn -0.2241 0.1770 -0.9583
vn 0.2425 0.0845 -0.9664
vn -0.2425 0.0845 -0.9664
vn 0.2241 0.1770 -0.9583
vn -0.2241 -0.0079 -0.9745
vn 0.1715 0.2554 -0.9515
vn -0.1715 -0.0863 -0.9814
vn 0.0928 0.3077 -0.9469
vn -0.0928 -0.1386 -0.9860
vn 0.0000 0.3262 -0.9453
vn 0.0928 -0.1386 -0.9860
vn 0.0000 -0.1570 -0.9876
s 1
f 11/1/1 10/2/2 17/3/3
f 4/4/4 3/5/5 17/3/3
f 12/6/6 11/1/1 17/3/3
f 5/7/7 4/4/4 17/3/3
f 13/8/8 12/6/6 17/3/3
f 6/9/9 5/7/7 17/3/3
f 14/10/10 13/8/8 17/3/3
f 7/11/11 6/9/9 17/3/3
f 15/12/12 14/10/10 17/3/3
f 8/13/13 7/11/11 17/3/3
f 16/14/14 15/12/12 17/3/3
f 9/15/15 8/13/13 17/3/3
f 2/16/16 1/17/17 17/3/3
f 1/17/17 16/14/14 17/3/3
f 10/2/2 9/15/15 17/3/3
f 3/5/5 2/16/16 17/3/3
