# Blender v2.80 (sub 74) OBJ File: 'robot.blend'
# www.blender.org
o Cylinder.009_Cylinder.008
v -1.440000 -0.000000 -0.600000
v 1.440000 -0.000000 -0.600000
v -1.440000 -0.155291 -0.579555
v 1.440000 -0.155292 -0.579556
v -1.440000 -0.299674 -0.519615
v 1.440000 -0.299674 -0.519615
v -1.440000 -0.407796 -0.424264
v 1.440000 -0.407796 -0.424264
v -1.440000 -0.470670 -0.300000
v 1.440000 -0.470670 -0.300000
v -1.440000 -0.497162 -0.155291
v 1.440000 -0.497162 -0.155292
v -1.440000 -0.502053 0.000000
v 1.440000 -0.502053 -0.000000
v -1.440000 -0.497162 0.155291
v 1.440000 -0.497162 0.155291
v -1.440000 -0.470671 0.300000
v 1.440000 -0.470671 0.300000
v -1.440000 -0.407796 0.424264
v 1.440000 -0.407796 0.424264
v -1.440000 -0.299674 0.519615
v 1.440000 -0.299674 0.519615
v -1.440000 -0.155292 0.579556
v 1.440000 -0.155292 0.579555
v -1.440000 -0.000000 0.600000
v 1.440000 -0.000000 0.600000
v -1.440000 0.155291 0.579556
v 1.440000 0.155291 0.579556
v -1.440000 0.300000 0.519616
v 1.440000 0.300000 0.519615
v -1.440000 0.424264 0.424264
v 1.440000 0.424264 0.424264
v -1.440000 0.519615 0.300000
v 1.440000 0.519615 0.300000
v -1.440000 0.579555 0.155292
v 1.440000 0.579555 0.155292
v -1.440000 0.600000 0.000001
v 1.440000 0.600000 0.000000
v -1.440000 0.579556 -0.155291
v 1.440000 0.579556 -0.155291
v -1.440000 0.519615 -0.299999
v 1.440000 0.519615 -0.300000
v -1.440000 0.424264 -0.424264
v 1.440000 0.424264 -0.424264
v -1.440000 0.300000 -0.519615
v 1.440000 0.300000 -0.519615
v -1.440000 0.155292 -0.579555
v 1.440000 0.155292 -0.579555
vt 0.457846 0.370000
vt 0.419706 0.419706
vt 0.370000 0.457846
vt 0.580294 0.419706
vt 0.630000 0.457846
vt 0.990000 0.250000
vt 0.312117 0.481822
vt 0.250000 0.490000
vt 0.481822 0.312117
vt 0.187883 0.481822
vt 0.130000 0.457846
vt 0.490000 0.250000
vt 0.080294 0.419706
vt 0.042154 0.370000
vt 0.018178 0.312116
vt 0.010000 0.250000
vt 0.018178 0.187883
vt 0.042154 0.130000
vt 0.080294 0.080294
vt 0.130000 0.042154
vt 0.187884 0.018178
vt 0.481822 0.187883
vt 0.250000 0.010000
vt 0.312117 0.018178
vt 0.370000 0.042154
vt 0.457846 0.130000
vt 0.419706 0.080294
vt 0.687883 0.481822
vt 0.750000 0.490000
vt 0.981822 0.312117
vt 0.812117 0.481822
vt 0.870000 0.457846
vt 0.957846 0.370000
vt 0.919706 0.419706
vt 0.981822 0.187883
vt 0.630000 0.042154
vt 0.957846 0.130000
vt 0.812117 0.018178
vt 0.919706 0.080294
vt 0.870000 0.042154
vt 0.750000 0.010000
vt 0.687884 0.018178
vt 0.580294 0.080294
vt 0.542154 0.130000
vt 0.518178 0.187883
vt 0.510000 0.250000
vt 0.518178 0.312116
vt 0.542154 0.370000
vn 1.0000 -0.0000 0.0000
vn -1.0000 0.0000 0.0000
s off
f 10/1/1 8/2/1 6/3/1
f 43/4/2 45/5/2 13/6/2
f 6/3/1 4/7/1 10/1/1
f 4/7/1 2/8/1 12/9/1
f 2/8/1 48/10/1 12/9/1
f 48/10/1 46/11/1 12/9/1
f 12/9/1 46/11/1 14/12/1
f 46/11/1 44/13/1 14/12/1
f 44/13/1 42/14/1 14/12/1
f 42/14/1 40/15/1 14/12/1
f 40/15/1 38/16/1 14/12/1
f 38/16/1 36/17/1 14/12/1
f 36/17/1 34/18/1 14/12/1
f 34/18/1 32/19/1 14/12/1
f 32/19/1 30/20/1 14/12/1
f 30/20/1 28/21/1 16/22/1
f 28/21/1 26/23/1 16/22/1
f 30/20/1 16/22/1 14/12/1
f 26/23/1 24/24/1 16/22/1
f 24/24/1 22/25/1 18/26/1
f 16/22/1 24/24/1 18/26/1
f 22/25/1 20/27/1 18/26/1
f 12/9/1 10/1/1 4/7/1
f 47/28/2 1/29/2 11/30/2
f 1/29/2 3/31/2 11/30/2
f 3/31/2 5/32/2 9/33/2
f 5/32/2 7/34/2 9/33/2
f 9/33/2 11/30/2 3/31/2
f 11/30/2 13/6/2 45/5/2
f 13/6/2 15/35/2 29/36/2
f 11/30/2 45/5/2 47/28/2
f 15/35/2 17/37/2 23/38/2
f 17/37/2 19/39/2 21/40/2
f 23/38/2 17/37/2 21/40/2
f 23/38/2 25/41/2 15/35/2
f 25/41/2 27/42/2 15/35/2
f 27/42/2 29/36/2 15/35/2
f 29/36/2 31/43/2 13/6/2
f 31/43/2 33/44/2 13/6/2
f 33/44/2 35/45/2 13/6/2
f 35/45/2 37/46/2 13/6/2
f 37/46/2 39/47/2 13/6/2
f 39/47/2 41/48/2 13/6/2
f 41/48/2 43/4/2 13/6/2
