# Blender v2.80 (sub 74) OBJ File: 'robot.blend'
# www.blender.org
o Plane.019_Plane.011
v -1.589688 0.497662 0.288000
v 1.589689 0.497662 0.288000
v 1.877689 -0.165887 0.288000
v 1.678686 0.481424 0.288000
v 1.758971 0.434298 0.288000
v 1.822686 0.360899 0.288000
v 1.863593 0.268410 0.288000
v 1.877688 0.165886 0.288000
v -1.589688 -0.497662 0.288000
v 1.589689 -0.497663 0.288000
v -1.877688 -0.165887 0.288000
v -1.678685 0.481424 0.288000
v -1.758970 0.434298 0.288000
v -1.822685 0.360899 0.288000
v -1.863592 0.268410 0.288000
v -1.877688 0.165887 0.288000
v -1.678686 -0.481424 0.288000
v -1.758970 -0.434298 0.288000
v -1.822685 -0.360899 0.288000
v -1.863592 -0.268410 0.288000
v 1.678685 -0.481424 0.288000
v 1.758971 -0.434299 0.288000
v 1.822686 -0.360899 0.288000
v 1.863593 -0.268411 0.288000
v 1.863593 -0.268411 -0.312000
v 1.822686 -0.360899 -0.312000
v 1.758971 -0.434299 -0.312000
v 1.678685 -0.481424 -0.312000
v -1.863592 -0.268410 -0.312000
v -1.822685 -0.360899 -0.312000
v -1.758970 -0.434298 -0.312000
v -1.678686 -0.481424 -0.312000
v -1.877688 0.165887 -0.312000
v -1.863592 0.268410 -0.312000
v -1.822685 0.360899 -0.312000
v -1.758970 0.434298 -0.312000
v -1.678685 0.481424 -0.312000
v -1.877688 -0.165887 -0.312000
v 1.589689 -0.497663 -0.312000
v -1.589688 -0.497662 -0.312000
v 1.877688 0.165886 -0.312000
v 1.863593 0.268410 -0.312000
v 1.822686 0.360899 -0.312000
v 1.758971 0.434298 -0.312000
v 1.678686 0.481424 -0.312000
v 1.877689 -0.165887 -0.312000
v 1.589689 0.497662 -0.312000
v -1.589688 0.497662 -0.312000
vt 1.000000 1.000000
vt 1.000000 0.000000
vt 1.000000 0.000000
vt 1.000000 0.000000
vt 1.000000 1.000000
vt 1.000000 0.000000
vt 1.000000 0.000000
vt 1.000000 1.000000
vt 1.000000 0.000000
vt 1.000000 1.000000
vt 1.000000 0.000000
vt 1.000000 0.000000
vt 1.000000 0.000000
vt 1.000000 0.000000
vt 1.000000 1.000000
vt 1.000000 0.000000
vt 1.000000 0.000000
vt 1.000000 0.000000
vt 1.000000 1.000000
vt 1.000000 0.000000
vt 1.000000 0.000000
vt 1.000000 1.000000
vt 1.000000 0.000000
vt 1.000000 0.000000
vt 1.000000 1.000000
vt 1.000000 0.000000
vt 1.000000 0.000000
vt 1.000000 0.000000
vt 1.000000 1.000000
vt 0.000000 0.000000
vt 1.000000 1.000000
vt 1.000000 0.000000
vt 1.000000 0.000000
vt 1.000000 1.000000
vt 1.000000 1.000000
vt 1.000000 1.000000
vt 1.000000 1.000000
vt 1.000000 1.000000
vt 1.000000 0.000000
vt 1.000000 1.000000
vt 1.000000 0.000000
vt 0.000000 0.000000
vt 1.000000 0.000000
vt 1.000000 1.000000
vt 1.000000 1.000000
vt 1.000000 1.000000
vt 1.000000 1.000000
vt 1.000000 0.000000
vn 0.0000 -0.0000 1.0000
vn -0.0000 0.0000 -1.0000
vn -0.0654 -0.7233 -0.6874
vn -0.2585 -0.6960 0.6699
vn -0.2585 -0.6960 -0.6699
vn 0.6228 0.3954 -0.6751
vn 0.7080 0.2009 0.6770
vn 0.7080 0.2009 -0.6770
vn -0.7080 -0.2009 -0.6770
vn -0.7201 -0.0493 0.6920
vn -0.7201 -0.0493 -0.6920
vn 0.2585 0.6960 -0.6699
vn 0.4730 0.5693 0.6724
vn 0.4730 0.5693 -0.6724
vn -0.7201 0.0493 0.6920
vn -0.7201 0.0493 -0.6920
vn 0.6228 -0.3954 -0.6751
vn 0.7080 -0.2009 0.6770
vn 0.6228 -0.3954 0.6751
vn -0.7080 0.2009 0.6770
vn -0.7080 0.2009 -0.6770
vn -0.2585 0.6960 -0.6699
vn -0.0654 0.7233 0.6874
vn -0.0654 0.7233 -0.6874
vn -0.4730 0.5693 -0.6724
vn -0.2585 0.6960 0.6699
vn 0.0654 -0.7233 -0.6874
vn -0.0654 -0.7233 0.6874
vn 0.0654 0.7233 0.6874
vn 0.0654 0.7233 -0.6874
vn 0.6228 0.3954 0.6751
vn -0.4730 -0.5693 0.6724
vn -0.4730 -0.5693 -0.6724
vn 0.7201 0.0493 0.6920
vn 0.7201 0.0493 -0.6920
vn -0.6228 -0.3954 -0.6751
vn -0.7080 -0.2009 0.6770
vn 0.4730 -0.5693 0.6724
vn 0.4730 -0.5693 -0.6724
vn 0.7080 -0.2009 -0.6770
vn 0.7201 -0.0493 0.6920
vn 0.2585 -0.6960 -0.6699
vn 0.0654 -0.7233 0.6874
vn -0.6228 0.3954 0.6751
vn -0.6228 0.3954 -0.6751
vn -0.4730 0.5693 0.6724
vn 0.7201 -0.0493 -0.6920
vn 0.2585 0.6960 0.6699
vn 0.2585 -0.6960 0.6699
vn -0.6228 -0.3954 0.6751
s off
f 39/1/1 32/2/1 40/3/1
f 30/4/1 25/5/1 29/6/1
f 31/7/1 26/8/1 30/4/1
f 44/9/1 35/10/1 43/11/1
f 41/12/1 38/13/1 46/14/1
f 32/2/1 27/15/1 31/7/1
f 11/16/2 8/17/2 3/18/2
f 8/17/2 15/19/2 7/20/2
f 15/19/2 6/21/2 7/20/2
f 22/22/2 17/23/2 18/24/2
f 23/25/2 18/24/2 19/26/2
f 20/27/2 23/25/2 19/26/2
f 3/18/2 20/27/2 11/16/2
f 2/28/2 12/29/2 1/30/2
f 13/31/2 4/32/2 5/33/2
f 14/34/2 5/33/2 6/21/2
f 10/35/2 17/23/2 21/36/2
f 29/6/1 46/14/1 38/13/1
f 41/12/1 34/37/1 33/38/1
f 43/11/1 34/37/1 42/39/1
f 37/40/1 47/41/1 48/42/1
f 45/43/1 36/44/1 44/9/1
f 39/1/1 28/45/1 32/2/1
f 30/4/1 26/8/1 25/5/1
f 31/7/1 27/15/1 26/8/1
f 44/9/1 36/44/1 35/10/1
f 41/12/1 33/38/1 38/13/1
f 32/2/1 28/45/1 27/15/1
f 11/16/2 16/46/2 8/17/2
f 8/17/2 16/46/2 15/19/2
f 15/19/2 14/34/2 6/21/2
f 22/22/2 21/36/2 17/23/2
f 23/25/2 22/22/2 18/24/2
f 20/27/2 24/47/2 23/25/2
f 3/18/2 24/47/2 20/27/2
f 2/28/2 4/32/2 12/29/2
f 13/31/2 12/29/2 4/32/2
f 14/34/2 13/31/2 5/33/2
f 10/35/2 9/48/2 17/23/2
f 29/6/1 25/5/1 46/14/1
f 41/12/1 42/39/1 34/37/1
f 43/11/1 35/10/1 34/37/1
f 37/40/1 45/43/1 47/41/1
f 45/43/1 37/40/1 36/44/1
s 1
f 2/28/3 45/43/4 4/32/5
f 19/26/6 29/6/7 20/27/8
f 7/20/9 41/12/10 8/17/11
f 17/23/12 31/7/13 18/24/14
f 8/17/11 46/14/15 3/18/16
f 14/34/17 34/37/18 35/10/19
f 3/18/16 25/5/20 24/47/21
f 21/36/22 39/1/23 10/35/24
f 22/22/25 28/45/26 21/36/22
f 1/30/27 47/41/28 2/28/3
f 10/35/24 40/3/29 9/48/30
f 18/24/14 30/4/31 19/26/6
f 4/32/5 44/9/32 5/33/33
f 20/27/8 38/13/34 11/16/35
f 6/21/36 42/39/37 7/20/9
f 14/34/17 36/44/38 13/31/39
f 15/19/40 33/38/41 34/37/18
f 12/29/42 48/42/43 1/30/27
f 24/47/21 26/8/44 23/25/45
f 23/25/45 27/15/46 22/22/25
f 11/16/35 33/38/41 16/46/47
f 9/48/30 32/2/48 17/23/12
f 13/31/39 37/40/49 12/29/42
f 5/33/33 43/11/50 6/21/36
f 2/28/3 47/41/28 45/43/4
f 19/26/6 30/4/31 29/6/7
f 7/20/9 42/39/37 41/12/10
f 17/23/12 32/2/48 31/7/13
f 8/17/11 41/12/10 46/14/15
f 14/34/17 15/19/40 34/37/18
f 3/18/16 46/14/15 25/5/20
f 21/36/22 28/45/26 39/1/23
f 22/22/25 27/15/46 28/45/26
f 1/30/27 48/42/43 47/41/28
f 10/35/24 39/1/23 40/3/29
f 18/24/14 31/7/13 30/4/31
f 4/32/5 45/43/4 44/9/32
f 20/27/8 29/6/7 38/13/34
f 6/21/36 43/11/50 42/39/37
f 14/34/17 35/10/19 36/44/38
f 15/19/40 16/46/47 33/38/41
f 12/29/42 37/40/49 48/42/43
f 24/47/21 25/5/20 26/8/44
f 23/25/45 26/8/44 27/15/46
f 11/16/35 38/13/34 33/38/41
f 9/48/30 40/3/29 32/2/48
f 13/31/39 36/44/38 37/40/49
f 5/33/33 44/9/32 43/11/50
