# Blender v2.80 (sub 74) OBJ File: 'robot.blend'
# www.blender.org
o Icosphere_Icosphere.001
v -0.000000 -0.500001 -0.000000
v 0.361804 -0.223611 0.236576
v -0.138194 -0.223611 0.382792
v -0.447213 -0.223609 -0.000000
v -0.138194 -0.223611 -0.382792
v 0.361804 -0.223611 -0.236576
v 0.138194 0.223609 0.382792
v -0.361804 0.223609 0.236576
v -0.361804 0.223609 -0.236576
v 0.138194 0.223609 -0.382792
v 0.447213 0.223607 -0.000000
v -0.000000 0.499999 -0.000000
v -0.081228 -0.425328 0.224998
v 0.212661 -0.425328 0.139055
v 0.131434 -0.262870 0.364055
v 0.425324 -0.262869 -0.000000
v 0.212661 -0.425328 -0.139055
v -0.262865 -0.425327 -0.000000
v -0.344095 -0.262869 0.224999
v -0.081228 -0.425328 -0.224998
v -0.344095 -0.262869 -0.224999
v 0.131434 -0.262870 -0.364055
v 0.475529 -0.000001 0.139056
v 0.475529 -0.000001 -0.139056
v -0.000000 -0.000001 0.450000
v 0.293893 -0.000001 0.364058
v -0.475529 -0.000001 0.139056
v -0.293893 -0.000001 0.364058
v -0.293893 -0.000001 -0.364058
v -0.475529 -0.000001 -0.139056
v 0.293893 -0.000001 -0.364058
v -0.000000 -0.000001 -0.450000
v 0.344095 0.262867 0.224999
v -0.131434 0.262868 0.364055
v -0.425324 0.262867 -0.000000
v -0.131434 0.262868 -0.364055
v 0.344095 0.262867 -0.224999
v 0.081228 0.425326 0.224998
v 0.262865 0.425325 -0.000000
v -0.212661 0.425326 0.139055
v -0.212661 0.425326 -0.139055
v 0.081228 0.425326 -0.224998
v -0.042221 -0.480369 0.117795
v 0.298235 -0.336790 0.196474
v -0.003521 -0.251717 0.389148
v 0.408563 -0.252510 0.123854
v 0.298235 -0.336790 -0.196474
v -0.136634 -0.480975 -0.000000
v -0.410771 -0.252594 0.117795
v -0.042221 -0.480369 -0.117795
v -0.249696 -0.251998 -0.317233
v 0.255438 -0.252099 -0.313524
v 0.434608 -0.116137 0.196475
v 0.479399 0.116127 -0.072809
v -0.071389 -0.115514 0.433446
v 0.223563 0.115722 0.389152
v -0.479399 -0.116129 0.072809
v -0.339715 0.115730 0.313526
v -0.223563 -0.115724 -0.389152
v -0.434608 0.116135 -0.196475
v 0.339715 -0.115732 -0.313526
v 0.071389 0.115512 -0.433446
v 0.249696 0.251996 0.317233
v -0.255438 0.252097 0.313524
v -0.408563 0.252508 -0.123854
v 0.003521 0.251715 -0.389148
v 0.410771 0.252592 -0.117795
v 0.113720 0.336033 0.317232
v 0.136634 0.480973 -0.000000
v -0.298235 0.336788 0.196474
v -0.298235 0.336788 -0.196474
v 0.113720 0.336033 -0.317232
v -0.113720 -0.336035 0.317232
v 0.110526 -0.480725 0.072810
v 0.255438 -0.252099 0.313524
v 0.408563 -0.252510 -0.123854
v 0.110526 -0.480725 -0.072810
v -0.369092 -0.337311 -0.000000
v -0.249696 -0.251998 0.317233
v -0.113720 -0.336035 -0.317232
v -0.410771 -0.252594 -0.117795
v -0.003521 -0.251717 -0.389148
v 0.479399 0.116127 0.072809
v 0.434608 -0.116137 -0.196475
v 0.071389 0.115512 0.433446
v 0.339715 -0.115732 0.313526
v -0.434608 0.116135 0.196475
v -0.223563 -0.115724 0.389152
v -0.339715 0.115730 -0.313526
v -0.479399 -0.116129 -0.072809
v 0.223563 0.115722 -0.389152
v -0.071389 -0.115514 -0.433446
v 0.410771 0.252592 0.117795
v 0.003521 0.251715 0.389148
v -0.408563 0.252508 0.123854
v -0.255438 0.252097 -0.313524
v 0.249696 0.251996 -0.317233
v 0.042221 0.480367 0.117795
v 0.369092 0.337309 -0.000000
v -0.110526 0.480723 0.072810
v -0.110526 0.480723 -0.072810
v 0.042221 0.480367 -0.117795
v 0.180554 0.446576 -0.119367
v 0.318682 0.361209 -0.119367
v 0.223063 0.360928 -0.238296
v -0.068927 0.446558 -0.193004
v -0.026415 0.360229 -0.311367
v -0.180202 0.360409 -0.266277
v -0.223303 0.446566 -0.000000
v -0.335153 0.361599 -0.073794
v -0.335153 0.361599 0.073794
v -0.068927 0.446558 0.193004
v -0.180202 0.360409 0.266277
v -0.026415 0.360229 0.311367
v 0.180554 0.446576 0.119367
v 0.223063 0.360928 0.238296
v 0.318682 0.361209 0.119367
v 0.430239 0.138057 -0.193005
v 0.402948 0.000001 -0.266279
v 0.334011 0.137475 -0.311370
v -0.068559 0.137147 -0.428847
v -0.153327 -0.000014 -0.428847
v -0.222400 0.137451 -0.384194
v -0.473309 0.138060 -0.073794
v -0.499285 0.000018 0.000000
v -0.473309 0.138060 0.073794
v -0.222400 0.137451 0.384194
v -0.153327 -0.000014 0.428847
v -0.068559 0.137147 0.428847
v 0.334011 0.137475 0.311370
v 0.402948 0.000001 0.266279
v 0.430239 0.138057 0.193005
v 0.153327 0.000012 -0.428848
v 0.222400 -0.137453 -0.384194
v 0.068559 -0.137148 -0.428847
v -0.402948 -0.000003 -0.266279
v -0.334011 -0.137477 -0.311370
v -0.430239 -0.138059 -0.193005
v -0.402948 -0.000003 0.266279
v -0.430239 -0.138059 0.193005
v -0.334011 -0.137477 0.311370
v 0.153327 0.000012 0.428847
v 0.068559 -0.137148 0.428847
v 0.222400 -0.137453 0.384194
v 0.499285 -0.000020 0.000000
v 0.473309 -0.138062 0.073794
v 0.473309 -0.138062 -0.073794
v 0.180202 -0.360411 -0.266277
v 0.068927 -0.446560 -0.193004
v 0.026415 -0.360231 -0.311367
v -0.223063 -0.360930 -0.238296
v -0.180554 -0.446578 -0.119367
v -0.318682 -0.361211 -0.119367
v -0.318682 -0.361211 0.119367
v -0.180554 -0.446578 0.119367
v -0.223063 -0.360930 0.238296
v 0.335153 -0.361601 -0.073794
v 0.335153 -0.361601 0.073794
v 0.223303 -0.446568 -0.000000
v 0.026415 -0.360231 0.311367
v 0.068927 -0.446560 0.193004
v 0.180202 -0.360411 0.266277
vt 0.818181 0.000000
vt 0.795454 0.039365
vt 0.840908 0.039365
vt 0.727272 0.157461
vt 0.704545 0.118096
vt 0.681818 0.157461
vt 0.090909 0.000000
vt 0.068182 0.039365
vt 0.113636 0.039365
vt 0.272727 0.000000
vt 0.250000 0.039365
vt 0.295454 0.039365
vt 0.454545 0.000000
vt 0.431818 0.039365
vt 0.477272 0.039365
vt 0.704545 0.196826
vt 0.909090 0.157461
vt 0.863635 0.157461
vt 0.886363 0.196826
vt 0.181818 0.157461
vt 0.136363 0.157461
vt 0.159091 0.196826
vt 0.363636 0.157461
vt 0.318181 0.157461
vt 0.340909 0.196826
vt 0.545454 0.157461
vt 0.500000 0.157461
vt 0.522727 0.196826
vt 0.749999 0.196826
vt 0.931818 0.196826
vt 0.204545 0.196826
vt 0.386363 0.196826
vt 0.568181 0.196826
vt 0.818181 0.314921
vt 0.772727 0.314921
vt 0.795454 0.354286
vt 1.000000 0.314921
vt 0.954545 0.314921
vt 0.977273 0.354286
vt 0.272727 0.314921
vt 0.227273 0.314921
vt 0.250000 0.354286
vt 0.454545 0.314921
vt 0.409091 0.314921
vt 0.431818 0.354286
vt 0.636363 0.314921
vt 0.590909 0.314921
vt 0.613636 0.354286
vt 0.590909 0.393651
vt 0.545454 0.393651
vt 0.568181 0.433017
vt 0.568181 0.354286
vt 0.545454 0.314921
vt 0.500000 0.314921
vt 0.522727 0.354286
vt 0.409090 0.393651
vt 0.363636 0.393651
vt 0.386363 0.433017
vt 0.386363 0.354286
vt 0.363636 0.314921
vt 0.318182 0.314921
vt 0.340909 0.354286
vt 0.227273 0.393651
vt 0.181818 0.393651
vt 0.204545 0.433017
vt 0.204545 0.354286
vt 0.181818 0.314921
vt 0.136364 0.314921
vt 0.159091 0.354286
vt 0.954545 0.393651
vt 0.909090 0.393651
vt 0.931818 0.433017
vt 0.931818 0.354286
vt 0.909091 0.314921
vt 0.863636 0.314921
vt 0.886363 0.354286
vt 0.772726 0.393651
vt 0.727272 0.393651
vt 0.749999 0.433017
vt 0.749999 0.354286
vt 0.727272 0.314921
vt 0.681818 0.314921
vt 0.704545 0.354286
vt 0.590909 0.236191
vt 0.568181 0.275556
vt 0.613636 0.275556
vt 0.545454 0.236191
vt 0.500000 0.236191
vt 0.477272 0.275556
vt 0.522727 0.275556
vt 0.409090 0.236191
vt 0.386363 0.275556
vt 0.431818 0.275556
vt 0.363636 0.236191
vt 0.318182 0.236191
vt 0.295454 0.275556
vt 0.340909 0.275556
vt 0.227273 0.236191
vt 0.204545 0.275556
vt 0.250000 0.275556
vt 0.181818 0.236191
vt 0.136363 0.236191
vt 0.113636 0.275556
vt 0.159091 0.275556
vt 0.954545 0.236191
vt 0.931818 0.275556
vt 0.977273 0.275556
vt 0.909090 0.236191
vt 0.863635 0.236191
vt 0.840908 0.275556
vt 0.886363 0.275556
vt 0.772726 0.236191
vt 0.749999 0.275556
vt 0.795454 0.275556
vt 0.727272 0.236191
vt 0.681818 0.236191
vt 0.659090 0.275556
vt 0.704545 0.275556
vt 0.454545 0.236191
vt 0.477272 0.196826
vt 0.454545 0.157461
vt 0.409091 0.157461
vt 0.431818 0.196826
vt 0.272727 0.236191
vt 0.295454 0.196826
vt 0.272727 0.157461
vt 0.227272 0.157461
vt 0.250000 0.196826
vt 0.090909 0.236191
vt 0.113636 0.196826
vt 0.090909 0.157461
vt 0.045454 0.157461
vt 0.068182 0.196826
vt 0.818181 0.236191
vt 0.840908 0.196826
vt 0.818181 0.157461
vt 0.772726 0.157461
vt 0.795454 0.196826
vt 0.636363 0.236191
vt 0.659090 0.196826
vt 0.636363 0.157461
vt 0.590909 0.157461
vt 0.613636 0.196826
vt 0.500000 0.078731
vt 0.477272 0.118096
vt 0.522727 0.118096
vt 0.454545 0.078731
vt 0.409090 0.078731
vt 0.386363 0.118096
vt 0.431818 0.118096
vt 0.318182 0.078731
vt 0.295454 0.118096
vt 0.340909 0.118096
vt 0.272727 0.078731
vt 0.227273 0.078731
vt 0.204545 0.118096
vt 0.250000 0.118096
vt 0.136363 0.078731
vt 0.113636 0.118096
vt 0.159091 0.118096
vt 0.090909 0.078731
vt 0.045454 0.078731
vt 0.022727 0.118096
vt 0.068182 0.118096
vt 0.613636 0.118096
vt 0.659090 0.118096
vt 0.681818 0.078731
vt 0.659090 0.039365
vt 0.636363 0.078731
vt 0.863635 0.078731
vt 0.840908 0.118096
vt 0.886363 0.118096
vt 0.818181 0.078731
vt 0.772726 0.078731
vt 0.749999 0.118096
vt 0.795454 0.118096
vt 0.613636 0.039365
vt 0.590909 0.078731
vt 0.636363 0.000000
vt 0.568181 0.118096
vt 0.000000 0.157461
vt 0.022727 0.196826
vt 0.045454 0.236191
vt 0.068182 0.275556
vt 0.090909 0.314921
vt 0.659090 0.354286
vt 0.681818 0.393651
vt 0.704545 0.433017
vt 0.727272 0.472382
vt 0.840908 0.354286
vt 0.863635 0.393651
vt 0.886363 0.433017
vt 0.909090 0.472382
vt 0.113636 0.354286
vt 0.136363 0.393651
vt 0.159091 0.433017
vt 0.181818 0.472382
vt 0.295454 0.354286
vt 0.318182 0.393651
vt 0.340909 0.433017
vt 0.363636 0.472382
vt 0.477272 0.354286
vt 0.500000 0.393651
vt 0.522727 0.433017
vt 0.545454 0.472382
vn 0.0001 -1.0000 0.0000
vn 0.2198 -0.9597 0.1751
vn -0.0841 -0.9550 0.2842
vn 0.7028 -0.4344 0.5633
vn 0.5855 -0.6587 0.4725
vn 0.8108 -0.5011 0.3024
vn -0.2711 -0.9626 0.0000
vn -0.0841 -0.9550 -0.2842
vn 0.2198 -0.9597 -0.1751
vn 0.8510 -0.2291 0.4725
vn -0.2566 -0.4152 0.8727
vn -0.0085 -0.4666 0.8844
vn -0.1313 -0.2125 0.9683
vn -0.8945 -0.4471 0.0000
vn -0.8166 -0.5023 0.2842
vn -0.9567 -0.2326 0.1751
vn -0.2566 -0.4152 -0.8727
vn -0.4736 -0.4783 -0.7395
vn -0.4135 -0.2163 -0.8844
vn 0.7028 -0.4344 -0.5633
vn 0.4879 -0.4801 -0.7290
vn 0.6476 -0.2217 -0.7290
vn 0.6476 -0.2217 0.7290
vn -0.4135 -0.2163 0.8844
vn -0.9567 -0.2326 -0.1751
vn -0.1313 -0.2125 -0.9683
vn 0.8510 -0.2291 -0.4725
vn 0.2566 0.4152 0.8727
vn 0.4736 0.4783 0.7395
vn 0.2160 0.6375 0.7395
vn -0.7028 0.4344 0.5633
vn -0.4879 0.4801 0.7290
vn -0.5855 0.6587 0.4725
vn -0.7028 0.4344 -0.5633
vn -0.8108 0.5011 -0.3024
vn -0.5855 0.6587 -0.4725
vn 0.2566 0.4152 -0.8727
vn 0.0085 0.4666 -0.8844
vn 0.2160 0.6375 -0.7395
vn 0.8945 0.4471 0.0000
vn 0.8166 0.5023 -0.2842
vn 0.7397 0.6729 0.0000
vn 0.5257 0.8506 0.0000
vn 0.3664 0.8820 -0.2961
vn 0.2711 0.9626 0.0000
vn 0.6250 0.7222 -0.2961
vn 0.6697 0.5125 -0.5374
vn 0.4736 0.4783 -0.7395
vn 0.4367 0.7066 -0.5567
vn 0.1588 0.8282 -0.5374
vn -0.1377 0.8709 -0.4717
vn 0.0841 0.9550 -0.2842
vn -0.0570 0.6912 -0.7203
vn -0.2452 0.4923 -0.8352
vn -0.4879 0.4801 -0.7290
vn -0.3389 0.7004 -0.6281
vn -0.4216 0.8420 -0.3365
vn -0.4572 0.8893 0.0000
vn -0.2198 0.9597 -0.1751
vn -0.6660 0.7264 -0.1695
vn -0.8506 0.5257 0.0000
vn -0.8108 0.5011 0.3024
vn -0.6660 0.7264 0.1695
vn -0.4216 0.8420 0.3365
vn -0.1377 0.8709 0.4717
vn -0.2198 0.9597 0.1751
vn -0.3389 0.7004 0.6281
vn -0.2452 0.4923 0.8352
vn 0.0085 0.4666 0.8844
vn -0.0570 0.6912 0.7203
vn 0.1588 0.8282 0.5374
vn 0.3664 0.8820 0.2961
vn 0.0841 0.9550 0.2842
vn 0.4367 0.7066 0.5567
vn 0.6697 0.5125 0.5374
vn 0.8166 0.5023 0.2842
vn 0.6250 0.7222 0.2961
vn 0.9417 -0.0006 -0.3365
vn 0.8405 0.2663 -0.4717
vn 0.9567 0.2326 -0.1751
vn 0.7780 0.0100 -0.6282
vn 0.5500 0.0008 -0.8352
vn 0.4135 0.2163 -0.8844
vn 0.6438 0.2581 -0.7203
vn 0.0000 0.0000 -1.0000
vn -0.1331 0.2471 -0.9598
vn 0.1313 0.2125 -0.9683
vn -0.2806 0.0085 -0.9598
vn -0.5500 -0.0008 -0.8352
vn -0.6476 0.2217 -0.7290
vn -0.4066 0.2513 -0.8784
vn -0.9417 0.0006 -0.3365
vn -0.9476 0.2709 -0.1695
vn -0.8510 0.2291 -0.4725
vn -0.9999 0.0112 0.0000
vn -0.9417 0.0006 0.3365
vn -0.8510 0.2291 0.4725
vn -0.9476 0.2709 0.1695
vn -0.5500 -0.0008 0.8352
vn -0.4066 0.2513 0.8784
vn -0.6476 0.2217 0.7290
vn -0.2806 0.0085 0.9598
vn 0.0000 0.0000 1.0000
vn 0.1313 0.2125 0.9683
vn -0.1331 0.2471 0.9598
vn 0.5500 0.0008 0.8352
vn 0.6438 0.2581 0.7203
vn 0.4135 0.2163 0.8844
vn 0.7780 0.0100 0.6282
vn 0.9417 -0.0006 0.3365
vn 0.9567 0.2326 0.1751
vn 0.8405 0.2663 0.4717
vn 0.2806 -0.0085 -0.9598
vn 0.4066 -0.2513 -0.8784
vn 0.2452 -0.4923 -0.8352
vn -0.0085 -0.4666 -0.8844
vn 0.1331 -0.2471 -0.9598
vn -0.7780 -0.0100 -0.6282
vn -0.6438 -0.2581 -0.7203
vn -0.6697 -0.5125 -0.5374
vn -0.8166 -0.5023 -0.2842
vn -0.8405 -0.2663 -0.4717
vn -0.7780 -0.0100 0.6282
vn -0.8405 -0.2663 0.4717
vn -0.6697 -0.5125 0.5374
vn -0.4736 -0.4783 0.7395
vn -0.6438 -0.2581 0.7203
vn 0.2806 -0.0085 0.9598
vn 0.1331 -0.2471 0.9598
vn 0.2452 -0.4923 0.8352
vn 0.4879 -0.4801 0.7290
vn 0.4066 -0.2513 0.8784
vn 0.9999 -0.0112 0.0000
vn 0.9476 -0.2709 0.1695
vn 0.8506 -0.5257 0.0000
vn 0.8108 -0.5011 -0.3024
vn 0.9476 -0.2709 -0.1695
vn 0.4216 -0.8420 -0.3365
vn 0.3389 -0.7004 -0.6281
vn 0.5855 -0.6587 -0.4725
vn 0.1377 -0.8709 -0.4717
vn -0.1588 -0.8282 -0.5374
vn -0.2160 -0.6375 -0.7395
vn 0.0570 -0.6912 -0.7203
vn -0.4367 -0.7066 -0.5567
vn -0.3664 -0.8820 -0.2961
vn -0.5257 -0.8506 0.0000
vn -0.7397 -0.6729 0.0000
vn -0.6250 -0.7222 -0.2961
vn -0.6250 -0.7222 0.2961
vn -0.3664 -0.8820 0.2961
vn -0.1588 -0.8282 0.5374
vn -0.2160 -0.6375 0.7395
vn -0.4367 -0.7066 0.5567
vn 0.6660 -0.7264 -0.1695
vn 0.6660 -0.7264 0.1695
vn 0.4216 -0.8420 0.3365
vn 0.4572 -0.8893 0.0000
vn 0.0570 -0.6912 0.7203
vn 0.1377 -0.8709 0.4717
vn 0.3389 -0.7004 0.6281
vn -0.0001 1.0000 0.0000
s 1
f 1/1/1 74/2/2 43/3/3
f 2/4/4 44/5/5 46/6/6
f 1/7/1 43/8/3 48/9/7
f 1/10/1 48/11/7 50/12/8
f 1/13/1 50/14/8 77/15/9
f 2/4/4 46/6/6 53/16/10
f 3/17/11 45/18/12 55/19/13
f 4/20/14 49/21/15 57/22/16
f 5/23/17 51/24/18 59/25/19
f 6/26/20 52/27/21 61/28/22
f 2/4/4 53/16/10 86/29/23
f 3/17/11 55/19/13 88/30/24
f 4/20/14 57/22/16 90/31/25
f 5/23/17 59/25/19 92/32/26
f 6/26/20 61/28/22 84/33/27
f 7/34/28 63/35/29 68/36/30
f 8/37/31 64/38/32 70/39/33
f 9/40/34 65/41/35 71/42/36
f 10/43/37 66/44/38 72/45/39
f 11/46/40 67/47/41 99/48/42
f 39/49/43 103/50/44 69/51/45
f 39/49/43 104/52/46 103/50/44
f 37/53/47 97/54/48 105/55/49
f 42/56/50 106/57/51 102/58/52
f 42/56/50 107/59/53 106/57/51
f 36/60/54 96/61/55 108/62/56
f 41/63/57 109/64/58 101/65/59
f 41/63/57 110/66/60 109/64/58
f 35/67/61 95/68/62 111/69/63
f 40/70/64 112/71/65 100/72/66
f 40/70/64 113/73/67 112/71/65
f 34/74/68 94/75/69 114/76/70
f 38/77/71 115/78/72 98/79/73
f 38/77/71 116/80/74 115/78/72
f 33/81/75 93/82/76 117/83/77
f 24/84/78 118/85/79 54/86/80
f 24/84/78 119/87/81 118/85/79
f 31/88/82 91/89/83 120/90/84
f 32/91/85 121/92/86 62/93/87
f 32/91/85 122/94/88 121/92/86
f 29/95/89 89/96/90 123/97/91
f 30/98/92 124/99/93 60/100/94
f 30/98/92 125/101/95 124/99/93
f 27/102/96 87/103/97 126/104/98
f 28/105/99 127/106/100 58/107/101
f 28/105/99 128/108/102 127/106/100
f 25/109/103 85/110/104 129/111/105
f 26/112/106 130/113/107 56/114/108
f 26/112/106 131/115/109 130/113/107
f 23/116/110 83/117/111 132/118/112
f 31/88/82 133/119/113 91/89/83
f 31/88/82 134/120/114 133/119/113
f 22/121/115 82/122/116 135/123/117
f 29/95/89 136/124/118 89/96/90
f 29/95/89 137/125/119 136/124/118
f 21/126/120 81/127/121 138/128/122
f 27/102/96 139/129/123 87/103/97
f 27/102/96 140/130/124 139/129/123
f 19/131/125 79/132/126 141/133/127
f 25/109/103 142/134/128 85/110/104
f 25/109/103 143/135/129 142/134/128
f 15/136/130 75/137/131 144/138/132
f 23/116/110 145/139/133 83/117/111
f 23/116/110 146/140/134 145/139/133
f 16/141/135 76/142/136 147/143/137
f 17/144/138 148/145/139 47/146/140
f 17/144/138 149/147/141 148/145/139
f 20/148/142 80/149/143 150/150/144
f 20/151/142 151/152/145 80/153/143
f 20/151/142 152/154/146 151/152/145
f 18/155/147 78/156/148 153/157/149
f 18/158/147 154/159/150 78/160/148
f 18/158/147 155/161/151 154/159/150
f 13/162/152 73/163/153 156/164/154
f 16/141/135 157/165/155 76/142/136
f 16/141/135 158/166/156 157/165/155
f 14/167/157 74/168/2 159/169/158
f 13/170/152 160/171/159 73/172/153
f 13/170/152 161/173/160 160/171/159
f 14/174/157 44/175/5 162/176/161
f 162/176/161 75/137/131 15/136/130
f 162/176/161 44/175/5 75/137/131
f 44/175/5 2/4/4 75/137/131
f 160/171/159 162/176/161 15/136/130
f 160/171/159 161/173/160 162/176/161
f 161/173/160 14/174/157 162/176/161
f 73/172/153 45/18/12 3/17/11
f 73/172/153 160/171/159 45/18/12
f 160/171/159 15/136/130 45/18/12
f 159/169/158 77/177/9 17/178/138
f 159/169/158 74/168/2 77/177/9
f 74/168/2 1/179/1 77/177/9
f 157/165/155 159/169/158 17/178/138
f 157/165/155 158/166/156 159/169/158
f 158/166/156 14/167/157 159/169/158
f 76/142/136 47/180/140 6/26/20
f 76/142/136 157/165/155 47/180/140
f 157/165/155 17/178/138 47/180/140
f 156/164/154 79/132/126 19/131/125
f 156/164/154 73/163/153 79/132/126
f 73/163/153 3/181/11 79/132/126
f 154/159/150 156/164/154 19/131/125
f 154/159/150 155/161/151 156/164/154
f 155/161/151 13/162/152 156/164/154
f 78/160/148 49/21/15 4/20/14
f 78/160/148 154/159/150 49/21/15
f 154/159/150 19/131/125 49/21/15
f 153/157/149 81/127/121 21/126/120
f 153/157/149 78/156/148 81/127/121
f 78/156/148 4/20/14 81/127/121
f 151/152/145 153/157/149 21/126/120
f 151/152/145 152/154/146 153/157/149
f 152/154/146 18/155/147 153/157/149
f 80/153/143 51/24/18 5/23/17
f 80/153/143 151/152/145 51/24/18
f 151/152/145 21/126/120 51/24/18
f 150/150/144 82/122/116 22/121/115
f 150/150/144 80/149/143 82/122/116
f 80/149/143 5/23/17 82/122/116
f 148/145/139 150/150/144 22/121/115
f 148/145/139 149/147/141 150/150/144
f 149/147/141 20/148/142 150/150/144
f 47/146/140 52/27/21 6/26/20
f 47/146/140 148/145/139 52/27/21
f 148/145/139 22/121/115 52/27/21
f 147/143/137 84/33/27 24/84/78
f 147/143/137 76/142/136 84/33/27
f 76/142/136 6/26/20 84/33/27
f 145/139/133 147/143/137 24/84/78
f 145/139/133 146/140/134 147/143/137
f 146/140/134 16/141/135 147/143/137
f 83/117/111 54/86/80 11/46/40
f 83/117/111 145/139/133 54/86/80
f 145/139/133 24/84/78 54/86/80
f 144/138/132 86/29/23 26/112/106
f 144/138/132 75/137/131 86/29/23
f 75/137/131 2/4/4 86/29/23
f 142/134/128 144/138/132 26/112/106
f 142/134/128 143/135/129 144/138/132
f 143/135/129 15/136/130 144/138/132
f 85/110/104 56/114/108 7/34/28
f 85/110/104 142/134/128 56/114/108
f 142/134/128 26/112/106 56/114/108
f 141/133/127 88/182/24 28/183/99
f 141/133/127 79/132/126 88/182/24
f 79/132/126 3/181/11 88/182/24
f 139/129/123 141/133/127 28/183/99
f 139/129/123 140/130/124 141/133/127
f 140/130/124 19/131/125 141/133/127
f 87/103/97 58/184/101 8/185/31
f 87/103/97 139/129/123 58/184/101
f 139/129/123 28/183/99 58/184/101
f 138/128/122 90/31/25 30/98/92
f 138/128/122 81/127/121 90/31/25
f 81/127/121 4/20/14 90/31/25
f 136/124/118 138/128/122 30/98/92
f 136/124/118 137/125/119 138/128/122
f 137/125/119 21/126/120 138/128/122
f 89/96/90 60/100/94 9/40/34
f 89/96/90 136/124/118 60/100/94
f 136/124/118 30/98/92 60/100/94
f 135/123/117 92/32/26 32/91/85
f 135/123/117 82/122/116 92/32/26
f 82/122/116 5/23/17 92/32/26
f 133/119/113 135/123/117 32/91/85
f 133/119/113 134/120/114 135/123/117
f 134/120/114 22/121/115 135/123/117
f 91/89/83 62/93/87 10/43/37
f 91/89/83 133/119/113 62/93/87
f 133/119/113 32/91/85 62/93/87
f 132/118/112 93/82/76 33/81/75
f 132/118/112 83/117/111 93/82/76
f 83/117/111 11/46/40 93/82/76
f 130/113/107 132/118/112 33/81/75
f 130/113/107 131/115/109 132/118/112
f 131/115/109 23/116/110 132/118/112
f 56/114/108 63/35/29 7/34/28
f 56/114/108 130/113/107 63/35/29
f 130/113/107 33/81/75 63/35/29
f 129/111/105 94/75/69 34/74/68
f 129/111/105 85/110/104 94/75/69
f 85/110/104 7/34/28 94/75/69
f 127/106/100 129/111/105 34/74/68
f 127/106/100 128/108/102 129/111/105
f 128/108/102 25/109/103 129/111/105
f 58/107/101 64/38/32 8/37/31
f 58/107/101 127/106/100 64/38/32
f 127/106/100 34/74/68 64/38/32
f 126/104/98 95/68/62 35/67/61
f 126/104/98 87/103/97 95/68/62
f 87/103/97 8/185/31 95/68/62
f 124/99/93 126/104/98 35/67/61
f 124/99/93 125/101/95 126/104/98
f 125/101/95 27/102/96 126/104/98
f 60/100/94 65/41/35 9/40/34
f 60/100/94 124/99/93 65/41/35
f 124/99/93 35/67/61 65/41/35
f 123/97/91 96/61/55 36/60/54
f 123/97/91 89/96/90 96/61/55
f 89/96/90 9/40/34 96/61/55
f 121/92/86 123/97/91 36/60/54
f 121/92/86 122/94/88 123/97/91
f 122/94/88 29/95/89 123/97/91
f 62/93/87 66/44/38 10/43/37
f 62/93/87 121/92/86 66/44/38
f 121/92/86 36/60/54 66/44/38
f 120/90/84 97/54/48 37/53/47
f 120/90/84 91/89/83 97/54/48
f 91/89/83 10/43/37 97/54/48
f 118/85/79 120/90/84 37/53/47
f 118/85/79 119/87/81 120/90/84
f 119/87/81 31/88/82 120/90/84
f 54/86/80 67/47/41 11/46/40
f 54/86/80 118/85/79 67/47/41
f 118/85/79 37/53/47 67/47/41
f 117/83/77 99/186/42 39/187/43
f 117/83/77 93/82/76 99/186/42
f 93/82/76 11/46/40 99/186/42
f 115/78/72 117/83/77 39/187/43
f 115/78/72 116/80/74 117/83/77
f 116/80/74 33/81/75 117/83/77
f 98/79/73 69/188/45 12/189/162
f 98/79/73 115/78/72 69/188/45
f 115/78/72 39/187/43 69/188/45
f 114/76/70 68/190/30 38/191/71
f 114/76/70 94/75/69 68/190/30
f 94/75/69 7/34/28 68/190/30
f 112/71/65 114/76/70 38/191/71
f 112/71/65 113/73/67 114/76/70
f 113/73/67 34/74/68 114/76/70
f 100/72/66 98/192/73 12/193/162
f 100/72/66 112/71/65 98/192/73
f 112/71/65 38/191/71 98/192/73
f 111/69/63 70/194/33 40/195/64
f 111/69/63 95/68/62 70/194/33
f 95/68/62 8/185/31 70/194/33
f 109/64/58 111/69/63 40/195/64
f 109/64/58 110/66/60 111/69/63
f 110/66/60 35/67/61 111/69/63
f 101/65/59 100/196/66 12/197/162
f 101/65/59 109/64/58 100/196/66
f 109/64/58 40/195/64 100/196/66
f 108/62/56 71/198/36 41/199/57
f 108/62/56 96/61/55 71/198/36
f 96/61/55 9/40/34 71/198/36
f 106/57/51 108/62/56 41/199/57
f 106/57/51 107/59/53 108/62/56
f 107/59/53 36/60/54 108/62/56
f 102/58/52 101/200/59 12/201/162
f 102/58/52 106/57/51 101/200/59
f 106/57/51 41/199/57 101/200/59
f 105/55/49 72/202/39 42/203/50
f 105/55/49 97/54/48 72/202/39
f 97/54/48 10/43/37 72/202/39
f 103/50/44 105/55/49 42/203/50
f 103/50/44 104/52/46 105/55/49
f 104/52/46 37/53/47 105/55/49
f 69/51/45 102/204/52 12/205/162
f 69/51/45 103/50/44 102/204/52
f 103/50/44 42/203/50 102/204/52
f 99/48/42 104/52/46 39/49/43
f 99/48/42 67/47/41 104/52/46
f 67/47/41 37/53/47 104/52/46
f 72/45/39 107/59/53 42/56/50
f 72/45/39 66/44/38 107/59/53
f 66/44/38 36/60/54 107/59/53
f 71/42/36 110/66/60 41/63/57
f 71/42/36 65/41/35 110/66/60
f 65/41/35 35/67/61 110/66/60
f 70/39/33 113/73/67 40/70/64
f 70/39/33 64/38/32 113/73/67
f 64/38/32 34/74/68 113/73/67
f 68/36/30 116/80/74 38/77/71
f 68/36/30 63/35/29 116/80/74
f 63/35/29 33/81/75 116/80/74
f 84/33/27 119/87/81 24/84/78
f 84/33/27 61/28/22 119/87/81
f 61/28/22 31/88/82 119/87/81
f 92/32/26 122/94/88 32/91/85
f 92/32/26 59/25/19 122/94/88
f 59/25/19 29/95/89 122/94/88
f 90/31/25 125/101/95 30/98/92
f 90/31/25 57/22/16 125/101/95
f 57/22/16 27/102/96 125/101/95
f 88/30/24 128/108/102 28/105/99
f 88/30/24 55/19/13 128/108/102
f 55/19/13 25/109/103 128/108/102
f 86/29/23 131/115/109 26/112/106
f 86/29/23 53/16/10 131/115/109
f 53/16/10 23/116/110 131/115/109
f 61/28/22 134/120/114 31/88/82
f 61/28/22 52/27/21 134/120/114
f 52/27/21 22/121/115 134/120/114
f 59/25/19 137/125/119 29/95/89
f 59/25/19 51/24/18 137/125/119
f 51/24/18 21/126/120 137/125/119
f 57/22/16 140/130/124 27/102/96
f 57/22/16 49/21/15 140/130/124
f 49/21/15 19/131/125 140/130/124
f 55/19/13 143/135/129 25/109/103
f 55/19/13 45/18/12 143/135/129
f 45/18/12 15/136/130 143/135/129
f 53/16/10 146/140/134 23/116/110
f 53/16/10 46/6/6 146/140/134
f 46/6/6 16/141/135 146/140/134
f 77/15/9 149/147/141 17/144/138
f 77/15/9 50/14/8 149/147/141
f 50/14/8 20/148/142 149/147/141
f 50/12/8 152/154/146 20/151/142
f 50/12/8 48/11/7 152/154/146
f 48/11/7 18/155/147 152/154/146
f 48/9/7 155/161/151 18/158/147
f 48/9/7 43/8/3 155/161/151
f 43/8/3 13/162/152 155/161/151
f 46/6/6 158/166/156 16/141/135
f 46/6/6 44/5/5 158/166/156
f 44/5/5 14/167/157 158/166/156
f 43/3/3 161/173/160 13/170/152
f 43/3/3 74/2/2 161/173/160
f 74/2/2 14/174/157 161/173/160
