# Blender v2.80 (sub 74) OBJ File: 'robot.blend'
# www.blender.org
o Cylinder.010_Cylinder.009
v -2.100000 0.000000 -0.720000
v 2.100000 0.000000 -0.720000
v -2.100000 -0.195090 -0.706165
v 2.100000 -0.195090 -0.706166
v -2.100000 -0.382683 -0.665193
v 2.100000 -0.382683 -0.665193
v -2.100000 -0.555570 -0.598658
v 2.100000 -0.555570 -0.598658
v -2.100000 -0.706714 -0.509117
v 2.100000 -0.706714 -0.509117
v -2.100000 -0.821378 -0.400011
v 2.100000 -0.821378 -0.400011
v -2.100000 -0.897889 -0.275532
v 2.100000 -0.897889 -0.275532
v -2.100000 -0.940479 -0.140465
v 2.100000 -0.940479 -0.140465
v -2.100000 -0.953532 -0.000000
v 2.100000 -0.953532 -0.000000
v -2.100000 -0.940479 0.140465
v 2.100000 -0.940479 0.140465
v -2.100000 -0.897889 0.275532
v 2.100000 -0.897889 0.275532
v -2.100000 -0.821378 0.400010
v 2.100000 -0.821378 0.400010
v -2.100000 -0.706714 0.509117
v 2.100000 -0.706714 0.509117
v -2.100000 -0.555570 0.598658
v 2.100000 -0.555570 0.598658
v -2.100000 -0.382683 0.665193
v 2.100000 -0.382683 0.665193
v -2.100000 -0.195090 0.706165
v 2.100000 -0.195090 0.706165
v -2.100000 0.000000 0.720000
v 2.100000 0.000000 0.720000
v -2.100000 0.195091 0.706165
v 2.100000 0.195091 0.706165
v -2.100000 0.382684 0.665193
v 2.100000 0.382684 0.665193
v -2.100000 0.555571 0.598658
v 2.100000 0.555571 0.598658
v -2.100000 0.706703 0.509117
v 2.100000 0.706703 0.509116
v -2.100000 0.821081 0.400010
v 2.100000 0.821081 0.400010
v -2.100000 0.897125 0.275532
v 2.100000 0.897125 0.275531
v -2.100000 0.939293 0.140465
v 2.100001 0.939293 0.140464
v -2.100000 0.952165 -0.000001
v 2.100000 0.952165 -0.000001
v -2.100000 0.939293 -0.140466
v 2.100000 0.939293 -0.140466
v -2.100000 0.897124 -0.275533
v 2.100000 0.897124 -0.275533
v -2.100000 0.821080 -0.400011
v 2.100000 0.821080 -0.400011
v -2.100000 0.706702 -0.509117
v 2.100000 0.706702 -0.509118
v -2.100000 0.555569 -0.598659
v 2.100000 0.555569 -0.598659
v -2.100000 0.382682 -0.665194
v 2.100000 0.382682 -0.665194
v -2.100000 0.195089 -0.706166
v 2.100000 0.195089 -0.706166
vt 0.010000 0.250000
vt 0.116663 0.050447
vt 0.116663 0.449553
vt 0.990000 0.250000
vt 0.919706 0.080294
vt 0.919706 0.419706
vt 0.341844 0.471731
vt 0.296822 0.485388
vt 0.296822 0.014612
vt 0.250000 0.490000
vt 0.250000 0.010000
vt 0.203179 0.485389
vt 0.203178 0.014612
vt 0.158156 0.471731
vt 0.158156 0.028269
vt 0.080295 0.419706
vt 0.050447 0.383337
vt 0.028269 0.341844
vt 0.014612 0.296822
vt 0.014611 0.203179
vt 0.080294 0.080294
vt 0.028269 0.158156
vt 0.050447 0.116663
vt 0.341844 0.028269
vt 0.383337 0.050447
vt 0.419706 0.080294
vt 0.383337 0.449553
vt 0.449553 0.116663
vt 0.485388 0.203178
vt 0.471731 0.158156
vt 0.490000 0.250000
vt 0.485388 0.296822
vt 0.419706 0.419706
vt 0.471731 0.341844
vt 0.449553 0.383337
vt 0.703179 0.485389
vt 0.750000 0.490000
vt 0.750000 0.010000
vt 0.796822 0.485388
vt 0.796822 0.014612
vt 0.841844 0.471731
vt 0.883337 0.449553
vt 0.841844 0.028269
vt 0.883337 0.050447
vt 0.949553 0.383337
vt 0.985388 0.296822
vt 0.971731 0.341844
vt 0.985388 0.203178
vt 0.971731 0.158156
vt 0.949553 0.116663
vt 0.703178 0.014612
vt 0.658156 0.028269
vt 0.616663 0.050447
vt 0.658156 0.471731
vt 0.580294 0.080294
vt 0.510000 0.250000
vt 0.550447 0.116663
vt 0.528269 0.158156
vt 0.514611 0.203179
vt 0.514612 0.296822
vt 0.580295 0.419706
vt 0.528269 0.341844
vt 0.550447 0.383337
vt 0.616663 0.449553
vn 1.0000 0.0000 -0.0000
vn -1.0000 0.0000 0.0000
s off
f 50/1/1 40/2/1 60/3/1
f 17/4/2 25/5/2 9/6/2
f 6/7/1 4/8/1 32/9/1
f 4/8/1 2/10/1 34/11/1
f 2/10/1 64/12/1 36/13/1
f 64/12/1 62/14/1 38/15/1
f 62/14/1 60/3/1 38/15/1
f 60/3/1 58/16/1 50/1/1
f 38/15/1 60/3/1 40/2/1
f 58/16/1 56/17/1 54/18/1
f 54/18/1 52/19/1 58/16/1
f 52/19/1 50/1/1 58/16/1
f 50/1/1 48/20/1 42/21/1
f 48/20/1 46/22/1 42/21/1
f 46/22/1 44/23/1 42/21/1
f 42/21/1 40/2/1 50/1/1
f 38/15/1 36/13/1 64/12/1
f 36/13/1 34/11/1 2/10/1
f 34/11/1 32/9/1 4/8/1
f 32/9/1 30/24/1 6/7/1
f 30/24/1 28/25/1 6/7/1
f 28/25/1 26/26/1 8/27/1
f 6/7/1 28/25/1 8/27/1
f 26/26/1 24/28/1 20/29/1
f 24/28/1 22/30/1 20/29/1
f 20/29/1 18/31/1 26/26/1
f 18/31/1 16/32/1 10/33/1
f 16/32/1 14/34/1 12/35/1
f 10/33/1 16/32/1 12/35/1
f 10/33/1 8/27/1 26/26/1
f 10/33/1 26/26/1 18/31/1
f 63/36/2 1/37/2 33/38/2
f 1/37/2 3/39/2 31/40/2
f 3/39/2 5/41/2 31/40/2
f 5/41/2 7/42/2 29/43/2
f 31/40/2 5/41/2 29/43/2
f 7/42/2 9/6/2 27/44/2
f 9/6/2 11/45/2 15/46/2
f 11/45/2 13/47/2 15/46/2
f 15/46/2 17/4/2 9/6/2
f 17/4/2 19/48/2 25/5/2
f 19/48/2 21/49/2 23/50/2
f 23/50/2 25/5/2 19/48/2
f 25/5/2 27/44/2 9/6/2
f 27/44/2 29/43/2 7/42/2
f 31/40/2 33/38/2 1/37/2
f 33/38/2 35/51/2 63/36/2
f 35/51/2 37/52/2 63/36/2
f 37/52/2 39/53/2 61/54/2
f 63/36/2 37/52/2 61/54/2
f 39/53/2 41/55/2 49/56/2
f 41/55/2 43/57/2 45/58/2
f 47/59/2 41/55/2 45/58/2
f 47/59/2 49/56/2 41/55/2
f 49/56/2 51/60/2 57/61/2
f 51/60/2 53/62/2 57/61/2
f 53/62/2 55/63/2 57/61/2
f 57/61/2 59/64/2 49/56/2
f 49/56/2 59/64/2 39/53/2
f 59/64/2 61/54/2 39/53/2
