# Blender v2.80 (sub 74) OBJ File: 'robot.blend'
# www.blender.org
o Plane.018_Plane.010
v 0.672809 0.138975 -0.068550
v 0.096116 -0.204021 0.023514
v 0.192231 -0.183332 0.021746
v 0.288347 -0.151454 0.019022
v 0.384462 -0.112280 0.014884
v 0.465392 -0.051967 0.006130
v 0.576693 0.035461 -0.025743
v 0.576693 0.116573 -0.058835
v 0.480578 0.090259 -0.021736
v 0.384462 0.063086 -0.009951
v 0.288347 0.037570 0.001115
v 0.192231 0.016228 0.010371
v 0.096116 0.001577 0.016725
v -0.672809 0.138975 -0.068550
v 0.000000 -0.211374 0.024142
v -0.096116 -0.204021 0.023514
v -0.192231 -0.183332 0.021746
v -0.288347 -0.151454 0.019022
v -0.384462 -0.112280 0.014884
v -0.465392 -0.051967 0.006130
v -0.576693 0.035461 -0.025743
v -0.576693 0.116573 -0.058835
v -0.480578 0.090259 -0.021736
v -0.384462 0.063086 -0.009951
v -0.288347 0.037570 0.001115
v -0.192231 0.016228 0.010371
v -0.096116 0.001577 0.016725
v 0.000000 -0.003866 -0.006601
vt 0.928571 0.000000
vt 1.000000 1.000000
vt 0.928571 1.000000
vt 0.571429 0.000000
vt 0.500000 1.000000
vt 0.500000 0.000000
vt 0.642857 0.000000
vt 0.571429 1.000000
vt 0.714286 0.000000
vt 0.642857 1.000000
vt 0.785714 0.000000
vt 0.714286 1.000000
vt 0.857143 0.000000
vt 0.785714 1.000000
vt 0.857143 1.000000
vt 0.928571 0.000000
vt 0.928571 1.000000
vt 1.000000 1.000000
vt 0.571429 0.000000
vt 0.571429 1.000000
vt 0.642857 0.000000
vt 0.642857 1.000000
vt 0.714286 0.000000
vt 0.714286 1.000000
vt 0.785714 0.000000
vt 0.785714 1.000000
vt 0.857143 0.000000
vt 0.857143 1.000000
vn 0.1492 0.2965 0.9433
vn 0.0055 0.3777 0.9259
vn 0.1019 0.3758 0.9211
vn -0.0329 0.0786 0.9963
vn 0.0000 0.0651 0.9979
vn 0.0000 0.1465 0.9892
vn 0.0178 0.0466 0.9987
vn -0.0887 0.0421 0.9951
vn 0.0186 0.0776 0.9968
vn 0.0564 0.0716 0.9958
vn 0.0181 0.1181 0.9928
vn 0.0629 0.1124 0.9916
vn 0.0525 0.1597 0.9857
vn 0.0589 0.1578 0.9857
vn 0.1423 0.2303 0.9626
vn -0.1492 0.2965 0.9433
vn -0.1019 0.3758 0.9211
vn -0.0055 0.3777 0.9259
vn 0.0329 0.0786 0.9963
vn 0.0887 0.0421 0.9951
vn -0.0178 0.0466 0.9987
vn -0.0564 0.0716 0.9958
vn -0.0186 0.0776 0.9968
vn -0.0629 0.1124 0.9916
vn -0.0181 0.1181 0.9928
vn -0.0589 0.1578 0.9857
vn -0.0525 0.1597 0.9857
vn -0.1423 0.2303 0.9626
s 1
f 7/1/1 1/2/2 8/3/3
f 2/4/4 28/5/5 15/6/6
f 3/7/7 13/8/8 2/4/4
f 4/9/9 12/10/10 3/7/7
f 5/11/11 11/12/12 4/9/9
f 6/13/13 10/14/14 5/11/11
f 7/1/1 9/15/15 6/13/13
f 21/16/16 22/17/17 14/18/18
f 28/5/5 16/19/19 15/6/6
f 27/20/20 17/21/21 16/19/19
f 26/22/22 18/23/23 17/21/21
f 25/24/24 19/25/25 18/23/23
f 24/26/26 20/27/27 19/25/25
f 23/28/28 21/16/16 20/27/27
f 2/4/4 13/8/8 28/5/5
f 3/7/7 12/10/10 13/8/8
f 4/9/9 11/12/12 12/10/10
f 5/11/11 10/14/14 11/12/12
f 6/13/13 9/15/15 10/14/14
f 7/1/1 8/3/3 9/15/15
f 28/5/5 27/20/20 16/19/19
f 27/20/20 26/22/22 17/21/21
f 26/22/22 25/24/24 18/23/23
f 25/24/24 24/26/26 19/25/25
f 24/26/26 23/28/28 20/27/27
f 23/28/28 22/17/17 21/16/16
