# Blender v2.80 (sub 74) OBJ File: 'robot.blend'
# www.blender.org
o Cylinder.011_Cylinder.010
v -2.000000 -0.130154 -1.211964
v 2.000000 -0.130153 -1.211964
v -2.000000 -0.340086 -1.270318
v 2.000000 -0.340085 -1.270318
v -2.000000 -0.506548 -1.234252
v 2.000000 -0.506548 -1.234252
v -2.000000 -0.506548 -1.091859
v 2.000000 -0.506548 -1.091859
v -2.000000 -0.506548 -0.867294
v 2.000000 -0.506548 -0.867294
v -2.000000 -0.506548 -0.585104
v 2.000000 -0.506548 -0.585105
v -2.000000 -0.506548 -0.279376
v 2.000000 -0.506548 -0.279377
v -2.000000 -0.506548 -0.011585
v 2.000000 -0.506548 -0.011585
v -2.000000 -0.506548 0.193225
v 2.000001 -0.506548 0.193224
v -2.000000 -0.506548 0.400897
v 2.000001 -0.506548 0.400896
v -2.000000 -0.506548 0.600958
v 2.000001 -0.506548 0.600958
v -1.999999 -0.506548 0.782902
v 2.000001 -0.506548 0.782902
v -1.999999 -0.506548 0.939978
v 2.000000 -0.506548 0.939978
v -1.999999 -0.506548 1.068187
v 2.000000 -0.506548 1.068187
v -2.000000 -0.409763 1.164031
v 2.000000 -0.409763 1.164031
v -2.000000 -0.309492 1.222756
v 2.000000 -0.309492 1.222756
v -2.000000 -0.195817 1.238241
v 2.000000 -0.195817 1.238241
v -2.000000 -0.074597 1.204517
v 2.000000 -0.074597 1.204517
v -2.000000 0.050304 1.117921
v 2.000000 0.050305 1.117921
v -2.000000 0.173750 0.979178
v 2.000000 0.173750 0.979177
v -2.000000 0.304312 0.790813
v 2.000000 0.304313 0.790813
v -2.000000 0.451693 0.558755
v 2.000000 0.451694 0.558754
v -2.000000 0.604149 0.297742
v 2.000000 0.604150 0.297742
v -2.000000 0.734881 0.054119
v 2.000000 0.734881 0.054119
v -2.000000 0.858605 -0.220705
v 2.000000 0.858605 -0.220706
v -2.000000 0.860106 -0.391915
v 2.000000 0.860106 -0.391916
v -2.000000 0.868097 -0.619381
v 2.000000 0.868097 -0.619381
v -2.000000 0.851584 -0.833129
v 2.000000 0.851584 -0.833129
v -2.000000 0.729283 -0.922825
v 2.000000 0.729283 -0.922825
v -2.000000 0.564981 -0.957196
v 2.000000 0.564981 -0.957197
v -2.000000 0.369418 -1.013253
v 2.000000 0.369419 -1.013253
v -2.000000 0.117321 -1.104059
v 2.000000 0.117321 -1.104059
vt 0.998013 0.075809
vt 0.998013 0.010069
vt 0.998013 -0.035325
vt -0.001950 0.613539
vt -0.001950 0.712448
vt -0.001949 -0.073937
vt 0.998013 0.075808
vt 0.998013 0.161423
vt 0.998013 0.010069
vt 0.998013 0.264278
vt 0.998013 0.379779
vt 0.998013 -0.035325
vt 0.998013 -0.062089
vt 0.998013 0.500694
vt 0.998013 -0.076224
vt 0.998013 -0.073937
vt 0.998013 0.891079
vt 0.998013 0.891079
vt 0.998013 0.613538
vt 0.998013 0.712447
vt 0.998013 0.853936
vt 0.998013 0.793619
vt 0.998013 -0.076224
vt 0.998013 -0.075436
vt 0.998013 0.793620
vt 0.998013 0.853936
vt 0.998013 0.903620
vt 0.998013 -0.062089
vt 0.998013 0.500695
vt 0.998013 -0.073937
vt 0.998013 0.613539
vt 0.998013 0.712448
vt 0.998013 0.379781
vt 0.998013 0.264279
vt 0.998013 0.161424
vt -0.001950 0.379779
vt -0.001950 0.264278
vt -0.001950 -0.035325
vt -0.001950 0.161423
vt -0.001950 0.010069
vt -0.001950 0.075808
vt -0.001950 -0.062089
vt -0.001949 -0.073937
vt -0.001950 0.500694
vt -0.001949 -0.076224
vt -0.001950 0.891079
vt -0.001949 -0.075436
vt -0.001950 0.853936
vt -0.001950 0.891079
vt -0.001949 -0.076224
vt -0.001950 0.793620
vt -0.001950 0.793619
vt -0.001950 0.712446
vt -0.001950 0.853935
vt -0.001950 0.613538
vt -0.001949 -0.062089
vt -0.001949 -0.035325
vt -0.001950 0.500695
vt -0.001950 0.903620
vt -0.001949 0.010069
vt -0.001949 0.075808
vt -0.001949 0.161423
vt -0.001949 0.264278
vt -0.001949 0.379781
vn 1.0000 0.0000 0.0000
vn -1.0000 -0.0000 0.0000
s off
f 30/1/1 28/2/1 26/3/1
f 39/4/2 41/5/2 21/6/2
f 6/7/1 4/8/1 8/9/1
f 4/8/1 2/10/1 8/9/1
f 2/10/1 64/11/1 10/12/1
f 8/9/1 2/10/1 10/12/1
f 12/13/1 10/12/1 64/11/1
f 12/13/1 64/11/1 62/14/1
f 16/15/1 14/16/1 48/17/1
f 14/16/1 12/13/1 62/14/1
f 52/18/1 62/14/1 60/19/1
f 60/19/1 58/20/1 54/21/1
f 58/20/1 56/22/1 54/21/1
f 14/16/1 62/14/1 52/18/1
f 20/23/1 18/24/1 44/25/1
f 18/24/1 16/15/1 46/26/1
f 48/17/1 14/16/1 52/18/1
f 52/18/1 50/27/1 48/17/1
f 60/19/1 54/21/1 52/18/1
f 16/15/1 48/17/1 46/26/1
f 26/3/1 24/28/1 38/29/1
f 24/28/1 22/30/1 40/31/1
f 22/30/1 20/23/1 42/32/1
f 46/26/1 44/25/1 18/24/1
f 44/25/1 42/32/1 20/23/1
f 42/32/1 40/31/1 22/30/1
f 40/31/1 38/29/1 24/28/1
f 38/29/1 36/33/1 26/3/1
f 36/33/1 34/34/1 26/3/1
f 34/34/1 32/35/1 26/3/1
f 32/35/1 30/1/1 26/3/1
f 63/36/2 1/37/2 9/38/2
f 1/37/2 3/39/2 7/40/2
f 9/38/2 1/37/2 7/40/2
f 3/39/2 5/41/2 7/40/2
f 9/38/2 11/42/2 63/36/2
f 11/42/2 13/43/2 61/44/2
f 63/36/2 11/42/2 61/44/2
f 13/43/2 15/45/2 47/46/2
f 15/45/2 17/47/2 45/48/2
f 13/43/2 47/46/2 51/49/2
f 17/47/2 19/50/2 43/51/2
f 19/50/2 21/6/2 41/5/2
f 61/44/2 13/43/2 51/49/2
f 47/46/2 15/45/2 45/48/2
f 55/52/2 57/53/2 53/54/2
f 57/53/2 59/55/2 53/54/2
f 59/55/2 61/44/2 51/49/2
f 21/6/2 23/56/2 39/4/2
f 23/56/2 25/57/2 37/58/2
f 43/51/2 19/50/2 41/5/2
f 45/48/2 17/47/2 43/51/2
f 47/46/2 49/59/2 51/49/2
f 51/49/2 53/54/2 59/55/2
f 25/57/2 27/60/2 29/61/2
f 29/61/2 31/62/2 25/57/2
f 31/62/2 33/63/2 25/57/2
f 33/63/2 35/64/2 25/57/2
f 35/64/2 37/58/2 25/57/2
f 37/58/2 39/4/2 23/56/2
