# Blender v2.80 (sub 74) OBJ File: 'robot.blend'
# www.blender.org
o Cylinder.005
v -2.100000 0.000000 -0.720000
v 2.100000 0.000000 -0.720000
v -2.100000 -0.195090 -0.706165
v 2.100000 -0.195090 -0.706166
v -2.100000 -0.382683 -0.665193
v 2.100000 -0.382683 -0.665193
v -2.100000 -0.555570 -0.598658
v 2.100000 -0.555570 -0.598658
v -2.100000 -0.706714 -0.509117
v 2.100000 -0.706714 -0.509117
v -2.100000 -0.821378 -0.400011
v 2.100000 -0.821378 -0.400011
v -2.100000 -0.897889 -0.275532
v 2.100000 -0.897889 -0.275532
v -2.100000 -0.940479 -0.140465
v 2.100000 -0.940479 -0.140465
v -2.100000 -0.953532 -0.000000
v 2.100000 -0.953532 -0.000000
v -2.100000 -0.940479 0.140465
v 2.100000 -0.940479 0.140465
v -2.100000 -0.897889 0.275532
v 2.100000 -0.897889 0.275532
v -2.100000 -0.821378 0.400010
v 2.100000 -0.821378 0.400010
v -2.100000 -0.706714 0.509117
v 2.100000 -0.706714 0.509117
v -2.100000 -0.555570 0.598658
v 2.100000 -0.555570 0.598658
v -2.100000 -0.382683 0.665193
v 2.100000 -0.382683 0.665193
v -2.100000 -0.195090 0.706165
v 2.100000 -0.195090 0.706165
v -2.100000 0.000000 0.720000
v 2.100000 0.000000 0.720000
v -2.100000 0.195091 0.706165
v 2.100000 0.195091 0.706165
v -2.100000 0.382684 0.665193
v 2.100000 0.382684 0.665193
v -2.100000 0.555571 0.598658
v 2.100000 0.555571 0.598658
v -2.100000 0.706703 0.509117
v 2.100000 0.706703 0.509116
v -2.100000 0.821081 0.400010
v 2.100000 0.821081 0.400010
v -2.100000 0.897125 0.275532
v 2.100000 0.897125 0.275531
v -2.100000 0.939293 0.140465
v 2.100001 0.939293 0.140464
v -2.100000 0.952165 -0.000001
v 2.100000 0.952165 -0.000001
v -2.100000 0.939293 -0.140466
v 2.100000 0.939293 -0.140466
v -2.100000 0.897124 -0.275533
v 2.100000 0.897124 -0.275533
v -2.100000 0.821080 -0.400011
v 2.100000 0.821080 -0.400011
v -2.100000 0.706702 -0.509117
v 2.100000 0.706702 -0.509118
v -2.100000 0.555569 -0.598659
v 2.100000 0.555569 -0.598659
v -2.100000 0.382682 -0.665194
v 2.100000 0.382682 -0.665194
v -2.100000 0.195089 -0.706166
v 2.100000 0.195089 -0.706166
vt 0.010000 0.250000
vt 0.116663 0.050447
vt 0.116663 0.449553
vt 0.990000 0.250000
vt 0.919706 0.080294
vt 0.919706 0.419706
vt 0.341844 0.471731
vt 0.296822 0.485388
vt 0.296822 0.014612
vt 0.250000 0.490000
vt 0.250000 0.010000
vt 0.203179 0.485389
vt 0.203178 0.014612
vt 0.158156 0.471731
vt 0.158156 0.028269
vt 0.080295 0.419706
vt 0.050447 0.383337
vt 0.028269 0.341844
vt 0.014612 0.296822
vt 0.014611 0.203179
vt 0.080294 0.080294
vt 0.028269 0.158156
vt 0.050447 0.116663
vt 0.341844 0.028269
vt 0.383337 0.050447
vt 0.419706 0.080294
vt 0.383337 0.449553
vt 0.449553 0.116663
vt 0.485388 0.203178
vt 0.471731 0.158156
vt 0.490000 0.250000
vt 0.485388 0.296822
vt 0.419706 0.419706
vt 0.471731 0.341844
vt 0.449553 0.383337
vt 0.703179 0.485389
vt 0.750000 0.490000
vt 0.750000 0.010000
vt 0.796822 0.485388
vt 0.796822 0.014612
vt 0.841844 0.471731
vt 0.883337 0.449553
vt 0.841844 0.028269
vt 0.883337 0.050447
vt 0.949553 0.383337
vt 0.985388 0.296822
vt 0.971731 0.341844
vt 0.985388 0.203178
vt 0.971731 0.158156
vt 0.949553 0.116663
vt 0.703178 0.014612
vt 0.658156 0.028269
vt 0.616663 0.050447
vt 0.658156 0.471731
vt 0.580294 0.080294
vt 0.510000 0.250000
vt 0.550447 0.116663
vt 0.528269 0.158156
vt 0.514611 0.203179
vt 0.514612 0.296822
vt 0.580295 0.419706
vt 0.528269 0.341844
vt 0.550447 0.383337
vt 0.616663 0.449553
vt 1.000000 1.000000
vt 0.968750 0.500000
vt 1.000000 0.500000
vt 0.968750 1.000000
vt 0.937500 0.500000
vt 0.906250 1.000000
vt 0.906250 0.500000
vt 0.875000 0.500000
vt 0.875000 1.000000
vt 0.843750 0.500000
vt 0.843750 1.000000
vt 0.812500 0.500000
vt 0.812500 1.000000
vt 0.781250 0.500000
vt 0.781250 1.000000
vt 0.750000 0.500000
vt 0.750000 1.000000
vt 0.718750 0.500000
vt 0.718750 1.000000
vt 0.687500 0.500000
vt 0.687500 1.000000
vt 0.656250 0.500000
vt 0.656250 1.000000
vt 0.625000 0.500000
vt 0.593750 1.000000
vt 0.593750 0.500000
vt 0.562500 0.500000
vt 0.562500 1.000000
vt 0.531250 0.500000
vt 0.531250 1.000000
vt 0.500000 0.500000
vt 0.500000 1.000000
vt 0.468750 0.500000
vt 0.468750 1.000000
vt 0.437500 0.500000
vt 0.437500 1.000000
vt 0.406250 0.500000
vt 0.375000 1.000000
vt 0.375000 0.500000
vt 0.343750 0.500000
vt 0.312500 1.000000
vt 0.312500 0.500000
vt 0.281250 0.500000
vt 0.250000 1.000000
vt 0.250000 0.500000
vt 0.218750 0.500000
vt 0.218750 1.000000
vt 0.187500 0.500000
vt 0.187500 1.000000
vt 0.156250 0.500000
vt 0.156250 1.000000
vt 0.125000 0.500000
vt 0.125000 1.000000
vt 0.093750 0.500000
vt 0.093750 1.000000
vt 0.062500 0.500000
vt 0.062500 1.000000
vt 0.031250 0.500000
vt 0.031250 1.000000
vt 0.000000 0.500000
vt 0.937500 1.000000
vt 0.625000 1.000000
vt 0.406250 1.000000
vt 0.343750 1.000000
vt 0.281250 1.000000
vt 0.000000 1.000000
vn 1.0000 0.0000 -0.0000
vn -1.0000 0.0000 0.0000
vn 0.6915 0.0000 -0.7223
vn -0.6912 -0.1029 -0.7152
vn -0.6915 0.0000 -0.7223
vn 0.6912 -0.1029 -0.7152
vn -0.6904 -0.2077 -0.6930
vn 0.6887 -0.3160 -0.6525
vn -0.6887 -0.3160 -0.6525
vn -0.6826 -0.4409 -0.5828
vn 0.6826 -0.4409 -0.5828
vn -0.6791 -0.5704 -0.4619
vn 0.6791 -0.5704 -0.4619
vn -0.6805 -0.6665 -0.3043
vn 0.6805 -0.6665 -0.3043
vn -0.6840 -0.7151 -0.1442
vn 0.6840 -0.7151 -0.1442
vn -0.6868 -0.7268 0.0000
vn 0.6868 -0.7268 0.0000
vn -0.6840 -0.7151 0.1442
vn 0.6840 -0.7151 0.1442
vn -0.6805 -0.6665 0.3043
vn 0.6805 -0.6665 0.3043
vn -0.6791 -0.5704 0.4619
vn 0.6791 -0.5704 0.4619
vn -0.6826 -0.4409 0.5828
vn 0.6887 -0.3160 0.6525
vn -0.6887 -0.3160 0.6525
vn -0.6904 -0.2077 0.6930
vn 0.6904 -0.2077 0.6930
vn -0.6912 -0.1029 0.7152
vn 0.6912 -0.1029 0.7152
vn -0.6915 0.0000 0.7223
vn 0.6915 0.0000 0.7223
vn -0.6912 0.1029 0.7152
vn 0.6912 0.1029 0.7152
vn -0.6904 0.2077 0.6930
vn 0.6904 0.2077 0.6930
vn -0.6887 0.3160 0.6525
vn 0.6825 0.4414 0.5826
vn -0.6825 0.4414 0.5826
vn -0.6790 0.5714 0.4609
vn 0.6805 0.6674 0.3024
vn -0.6805 0.6674 0.3024
vn -0.6841 0.7152 0.1427
vn 0.6871 0.7265 0.0000
vn -0.6871 0.7265 0.0000
vn -0.6841 0.7152 -0.1427
vn 0.6841 0.7152 -0.1427
vn -0.6805 0.6674 -0.3024
vn 0.6805 0.6674 -0.3024
vn -0.6790 0.5714 -0.4609
vn 0.6790 0.5714 -0.4609
vn -0.6825 0.4414 -0.5826
vn 0.6825 0.4413 -0.5826
vn -0.6887 0.3160 -0.6525
vn 0.6887 0.3160 -0.6525
vn -0.6904 0.2077 -0.6930
vn 0.6904 0.2077 -0.6930
vn -0.6912 0.1029 -0.7152
vn 0.6912 0.1029 -0.7152
vn 0.6904 -0.2077 -0.6930
vn 0.6826 -0.4409 0.5828
vn 0.6887 0.3160 0.6525
vn 0.6790 0.5714 0.4609
vn 0.6841 0.7152 0.1427
s off
f 50/1/1 40/2/1 60/3/1
f 17/4/2 25/5/2 9/6/2
f 6/7/1 4/8/1 32/9/1
f 4/8/1 2/10/1 34/11/1
f 2/10/1 64/12/1 36/13/1
f 64/12/1 62/14/1 38/15/1
f 62/14/1 60/3/1 38/15/1
f 60/3/1 58/16/1 50/1/1
f 38/15/1 60/3/1 40/2/1
f 58/16/1 56/17/1 54/18/1
f 54/18/1 52/19/1 58/16/1
f 52/19/1 50/1/1 58/16/1
f 50/1/1 48/20/1 42/21/1
f 48/20/1 46/22/1 42/21/1
f 46/22/1 44/23/1 42/21/1
f 42/21/1 40/2/1 50/1/1
f 38/15/1 36/13/1 64/12/1
f 36/13/1 34/11/1 2/10/1
f 34/11/1 32/9/1 4/8/1
f 32/9/1 30/24/1 6/7/1
f 30/24/1 28/25/1 6/7/1
f 28/25/1 26/26/1 8/27/1
f 6/7/1 28/25/1 8/27/1
f 26/26/1 24/28/1 20/29/1
f 24/28/1 22/30/1 20/29/1
f 20/29/1 18/31/1 26/26/1
f 18/31/1 16/32/1 10/33/1
f 16/32/1 14/34/1 12/35/1
f 10/33/1 16/32/1 12/35/1
f 10/33/1 8/27/1 26/26/1
f 10/33/1 26/26/1 18/31/1
f 63/36/2 1/37/2 33/38/2
f 1/37/2 3/39/2 31/40/2
f 3/39/2 5/41/2 31/40/2
f 5/41/2 7/42/2 29/43/2
f 31/40/2 5/41/2 29/43/2
f 7/42/2 9/6/2 27/44/2
f 9/6/2 11/45/2 15/46/2
f 11/45/2 13/47/2 15/46/2
f 15/46/2 17/4/2 9/6/2
f 17/4/2 19/48/2 25/5/2
f 19/48/2 21/49/2 23/50/2
f 23/50/2 25/5/2 19/48/2
f 25/5/2 27/44/2 9/6/2
f 27/44/2 29/43/2 7/42/2
f 31/40/2 33/38/2 1/37/2
f 33/38/2 35/51/2 63/36/2
f 35/51/2 37/52/2 63/36/2
f 37/52/2 39/53/2 61/54/2
f 63/36/2 37/52/2 61/54/2
f 39/53/2 41/55/2 49/56/2
f 41/55/2 43/57/2 45/58/2
f 47/59/2 41/55/2 45/58/2
f 47/59/2 49/56/2 41/55/2
f 49/56/2 51/60/2 57/61/2
f 51/60/2 53/62/2 57/61/2
f 53/62/2 55/63/2 57/61/2
f 57/61/2 59/64/2 49/56/2
f 49/56/2 59/64/2 39/53/2
f 59/64/2 61/54/2 39/53/2
s 1
f 2/65/3 3/66/4 1/67/5
f 4/68/6 5/69/7 3/66/4
f 5/69/7 8/70/8 7/71/9
f 8/70/8 9/72/10 7/71/9
f 10/73/11 11/74/12 9/72/10
f 12/75/13 13/76/14 11/74/12
f 14/77/15 15/78/16 13/76/14
f 16/79/17 17/80/18 15/78/16
f 18/81/19 19/82/20 17/80/18
f 20/83/21 21/84/22 19/82/20
f 22/85/23 23/86/24 21/84/22
f 24/87/25 25/88/26 23/86/24
f 25/88/26 28/89/27 27/90/28
f 28/89/27 29/91/29 27/90/28
f 30/92/30 31/93/31 29/91/29
f 32/94/32 33/95/33 31/93/31
f 34/96/34 35/97/35 33/95/33
f 36/98/36 37/99/37 35/97/35
f 38/100/38 39/101/39 37/99/37
f 39/101/39 42/102/40 41/103/41
f 42/102/40 43/104/42 41/103/41
f 43/104/42 46/105/43 45/106/44
f 46/105/43 47/107/45 45/106/44
f 47/107/45 50/108/46 49/109/47
f 50/108/46 51/110/48 49/109/47
f 52/111/49 53/112/50 51/110/48
f 54/113/51 55/114/52 53/112/50
f 56/115/53 57/116/54 55/114/52
f 58/117/55 59/118/56 57/116/54
f 60/119/57 61/120/58 59/118/56
f 62/121/59 63/122/60 61/120/58
f 64/123/61 1/124/5 63/122/60
f 2/65/3 4/68/6 3/66/4
f 4/68/6 6/125/62 5/69/7
f 5/69/7 6/125/62 8/70/8
f 8/70/8 10/73/11 9/72/10
f 10/73/11 12/75/13 11/74/12
f 12/75/13 14/77/15 13/76/14
f 14/77/15 16/79/17 15/78/16
f 16/79/17 18/81/19 17/80/18
f 18/81/19 20/83/21 19/82/20
f 20/83/21 22/85/23 21/84/22
f 22/85/23 24/87/25 23/86/24
f 24/87/25 26/126/63 25/88/26
f 25/88/26 26/126/63 28/89/27
f 28/89/27 30/92/30 29/91/29
f 30/92/30 32/94/32 31/93/31
f 32/94/32 34/96/34 33/95/33
f 34/96/34 36/98/36 35/97/35
f 36/98/36 38/100/38 37/99/37
f 38/100/38 40/127/64 39/101/39
f 39/101/39 40/127/64 42/102/40
f 42/102/40 44/128/65 43/104/42
f 43/104/42 44/128/65 46/105/43
f 46/105/43 48/129/66 47/107/45
f 47/107/45 48/129/66 50/108/46
f 50/108/46 52/111/49 51/110/48
f 52/111/49 54/113/51 53/112/50
f 54/113/51 56/115/53 55/114/52
f 56/115/53 58/117/55 57/116/54
f 58/117/55 60/119/57 59/118/56
f 60/119/57 62/121/59 61/120/58
f 62/121/59 64/123/61 63/122/60
f 64/123/61 2/130/3 1/124/5
