# Blender v2.80 (sub 74) OBJ File: 'robot.blend'
# www.blender.org
o Cylinder.006
v -1.440000 -0.000000 -0.600000
v 1.440000 -0.000000 -0.600000
v -1.440000 -0.155291 -0.579555
v 1.440000 -0.155292 -0.579556
v -1.440000 -0.299674 -0.519615
v 1.440000 -0.299674 -0.519615
v -1.440000 -0.407796 -0.424264
v 1.440000 -0.407796 -0.424264
v -1.440000 -0.470670 -0.300000
v 1.440000 -0.470670 -0.300000
v -1.440000 -0.497162 -0.155291
v 1.440000 -0.497162 -0.155292
v -1.440000 -0.502053 0.000000
v 1.440000 -0.502053 -0.000000
v -1.440000 -0.497162 0.155291
v 1.440000 -0.497162 0.155291
v -1.440000 -0.470671 0.300000
v 1.440000 -0.470671 0.300000
v -1.440000 -0.407796 0.424264
v 1.440000 -0.407796 0.424264
v -1.440000 -0.299674 0.519615
v 1.440000 -0.299674 0.519615
v -1.440000 -0.155292 0.579556
v 1.440000 -0.155292 0.579555
v -1.440000 -0.000000 0.600000
v 1.440000 -0.000000 0.600000
v -1.440000 0.155291 0.579556
v 1.440000 0.155291 0.579556
v -1.440000 0.300000 0.519616
v 1.440000 0.300000 0.519615
v -1.440000 0.424264 0.424264
v 1.440000 0.424264 0.424264
v -1.440000 0.519615 0.300000
v 1.440000 0.519615 0.300000
v -1.440000 0.579555 0.155292
v 1.440000 0.579555 0.155292
v -1.440000 0.600000 0.000001
v 1.440000 0.600000 0.000000
v -1.440000 0.579556 -0.155291
v 1.440000 0.579556 -0.155291
v -1.440000 0.519615 -0.299999
v 1.440000 0.519615 -0.300000
v -1.440000 0.424264 -0.424264
v 1.440000 0.424264 -0.424264
v -1.440000 0.300000 -0.519615
v 1.440000 0.300000 -0.519615
v -1.440000 0.155292 -0.579555
v 1.440000 0.155292 -0.579555
vt 1.000000 1.000000
vt 0.958333 0.500000
vt 1.000000 0.500000
vt 0.958333 1.000000
vt 0.916667 0.500000
vt 0.916667 1.000000
vt 0.875000 0.500000
vt 0.875000 1.000000
vt 0.833333 0.500000
vt 0.833333 1.000000
vt 0.791667 0.500000
vt 0.791667 1.000000
vt 0.750000 0.500000
vt 0.750000 1.000000
vt 0.708333 0.500000
vt 0.708333 1.000000
vt 0.666667 0.500000
vt 0.666667 1.000000
vt 0.625000 0.500000
vt 0.625000 1.000000
vt 0.583333 0.500000
vt 0.583333 1.000000
vt 0.541666 0.500000
vt 0.541666 1.000000
vt 0.500000 0.500000
vt 0.500000 1.000000
vt 0.458333 0.500000
vt 0.458333 1.000000
vt 0.416666 0.500000
vt 0.416666 1.000000
vt 0.375000 0.500000
vt 0.375000 1.000000
vt 0.333333 0.500000
vt 0.333333 1.000000
vt 0.291667 0.500000
vt 0.291667 1.000000
vt 0.250000 0.500000
vt 0.250000 1.000000
vt 0.208333 0.500000
vt 0.208333 1.000000
vt 0.166666 0.500000
vt 0.166666 1.000000
vt 0.125000 0.500000
vt 0.125000 1.000000
vt 0.083333 0.500000
vt 0.083333 1.000000
vt 0.041666 0.500000
vt 0.041666 1.000000
vt -0.000000 0.500000
vt -0.000000 1.000000
vn 0.0000 0.0000 -1.0000
vn 0.0000 -0.2592 -0.9658
vn 0.0000 -0.5296 -0.8482
vn 0.0000 -0.7910 -0.6117
vn 0.0000 -0.9477 -0.3190
vn 0.0000 -0.9944 -0.1061
vn 0.0000 -1.0000 0.0000
vn 0.0000 -0.9944 0.1061
vn 0.0000 -0.9477 0.3190
vn 0.0000 -0.7910 0.6117
vn 0.0000 -0.5296 0.8482
vn 0.0000 -0.2592 0.9658
vn 0.0000 0.0000 1.0000
vn 0.0000 0.2588 0.9659
vn 0.0000 0.5000 0.8660
vn 0.0000 0.7071 0.7071
vn 0.0000 0.8660 0.5000
vn 0.0000 0.9659 0.2588
vn 0.0000 1.0000 0.0000
vn 0.0000 0.9659 -0.2588
vn 0.0000 0.8660 -0.5000
vn 0.0000 0.7071 -0.7071
vn 0.0000 0.5000 -0.8660
vn 0.0000 0.2588 -0.9659
s 1
f 2/1/1 3/2/2 1/3/1
f 4/4/2 5/5/3 3/2/2
f 6/6/3 7/7/4 5/5/3
f 8/8/4 9/9/5 7/7/4
f 10/10/5 11/11/6 9/9/5
f 12/12/6 13/13/7 11/11/6
f 14/14/7 15/15/8 13/13/7
f 16/16/8 17/17/9 15/15/8
f 18/18/9 19/19/10 17/17/9
f 20/20/10 21/21/11 19/19/10
f 22/22/11 23/23/12 21/21/11
f 24/24/12 25/25/13 23/23/12
f 26/26/13 27/27/14 25/25/13
f 28/28/14 29/29/15 27/27/14
f 30/30/15 31/31/16 29/29/15
f 32/32/16 33/33/17 31/31/16
f 34/34/17 35/35/18 33/33/17
f 36/36/18 37/37/19 35/35/18
f 38/38/19 39/39/20 37/37/19
f 40/40/20 41/41/21 39/39/20
f 42/42/21 43/43/22 41/41/21
f 44/44/22 45/45/23 43/43/22
f 46/46/23 47/47/24 45/45/23
f 48/48/24 1/49/1 47/47/24
f 2/1/1 4/4/2 3/2/2
f 4/4/2 6/6/3 5/5/3
f 6/6/3 8/8/4 7/7/4
f 8/8/4 10/10/5 9/9/5
f 10/10/5 12/12/6 11/11/6
f 12/12/6 14/14/7 13/13/7
f 14/14/7 16/16/8 15/15/8
f 16/16/8 18/18/9 17/17/9
f 18/18/9 20/20/10 19/19/10
f 20/20/10 22/22/11 21/21/11
f 22/22/11 24/24/12 23/23/12
f 24/24/12 26/26/13 25/25/13
f 26/26/13 28/28/14 27/27/14
f 28/28/14 30/30/15 29/29/15
f 30/30/15 32/32/16 31/31/16
f 32/32/16 34/34/17 33/33/17
f 34/34/17 36/36/18 35/35/18
f 36/36/18 38/38/19 37/37/19
f 38/38/19 40/40/20 39/39/20
f 40/40/20 42/42/21 41/41/21
f 42/42/21 44/44/22 43/43/22
f 44/44/22 46/46/23 45/45/23
f 46/46/23 48/48/24 47/47/24
f 48/48/24 2/50/1 1/49/1
