# Blender v2.80 (sub 74) OBJ File: 'robot.blend'
# www.blender.org
o Cylinder.006
v -1.440000 -0.000000 -0.600000
v 1.440000 -0.000000 -0.600000
v -1.440000 -0.155291 -0.579555
v 1.440000 -0.155292 -0.579556
v -1.440000 -0.299674 -0.519615
v 1.440000 -0.299674 -0.519615
v -1.440000 -0.407796 -0.424264
v 1.440000 -0.407796 -0.424264
v -1.440000 -0.470670 -0.300000
v 1.440000 -0.470670 -0.300000
v -1.440000 -0.497162 -0.155291
v 1.440000 -0.497162 -0.155292
v -1.440000 -0.502053 0.000000
v 1.440000 -0.502053 -0.000000
v -1.440000 -0.497162 0.155291
v 1.440000 -0.497162 0.155291
v -1.440000 -0.470671 0.300000
v 1.440000 -0.470671 0.300000
v -1.440000 -0.407796 0.424264
v 1.440000 -0.407796 0.424264
v -1.440000 -0.299674 0.519615
v 1.440000 -0.299674 0.519615
v -1.440000 -0.155292 0.579556
v 1.440000 -0.155292 0.579555
v -1.440000 -0.000000 0.600000
v 1.440000 -0.000000 0.600000
v -1.440000 0.155291 0.579556
v 1.440000 0.155291 0.579556
v -1.440000 0.300000 0.519616
v 1.440000 0.300000 0.519615
v -1.440000 0.424264 0.424264
v 1.440000 0.424264 0.424264
v -1.440000 0.519615 0.300000
v 1.440000 0.519615 0.300000
v -1.440000 0.579555 0.155292
v 1.440000 0.579555 0.155292
v -1.440000 0.600000 0.000001
v 1.440000 0.600000 0.000000
v -1.440000 0.579556 -0.155291
v 1.440000 0.579556 -0.155291
v -1.440000 0.519615 -0.299999
v 1.440000 0.519615 -0.300000
v -1.440000 0.424264 -0.424264
v 1.440000 0.424264 -0.424264
v -1.440000 0.300000 -0.519615
v 1.440000 0.300000 -0.519615
v -1.440000 0.155292 -0.579555
v 1.440000 0.155292 -0.579555
vt 0.457846 0.370000
vt 0.419706 0.419706
vt 0.370000 0.457846
vt 0.580294 0.419706
vt 0.630000 0.457846
vt 0.990000 0.250000
vt 0.312117 0.481822
vt 0.250000 0.490000
vt 0.481822 0.312117
vt 0.187883 0.481822
vt 0.130000 0.457846
vt 0.490000 0.250000
vt 0.080294 0.419706
vt 0.042154 0.370000
vt 0.018178 0.312116
vt 0.010000 0.250000
vt 0.018178 0.187883
vt 0.042154 0.130000
vt 0.080294 0.080294
vt 0.130000 0.042154
vt 0.187884 0.018178
vt 0.481822 0.187883
vt 0.250000 0.010000
vt 0.312117 0.018178
vt 0.370000 0.042154
vt 0.457846 0.130000
vt 0.419706 0.080294
vt 0.687883 0.481822
vt 0.750000 0.490000
vt 0.981822 0.312117
vt 0.812117 0.481822
vt 0.870000 0.457846
vt 0.957846 0.370000
vt 0.919706 0.419706
vt 0.981822 0.187883
vt 0.630000 0.042154
vt 0.957846 0.130000
vt 0.812117 0.018178
vt 0.919706 0.080294
vt 0.870000 0.042154
vt 0.750000 0.010000
vt 0.687884 0.018178
vt 0.580294 0.080294
vt 0.542154 0.130000
vt 0.518178 0.187883
vt 0.510000 0.250000
vt 0.518178 0.312116
vt 0.542154 0.370000
vt 1.000000 1.000000
vt 0.958333 0.500000
vt 1.000000 0.500000
vt 0.958333 1.000000
vt 0.916667 0.500000
vt 0.916667 1.000000
vt 0.875000 0.500000
vt 0.875000 1.000000
vt 0.833333 0.500000
vt 0.833333 1.000000
vt 0.791667 0.500000
vt 0.791667 1.000000
vt 0.750000 0.500000
vt 0.750000 1.000000
vt 0.708333 0.500000
vt 0.708333 1.000000
vt 0.666667 0.500000
vt 0.666667 1.000000
vt 0.625000 0.500000
vt 0.625000 1.000000
vt 0.583333 0.500000
vt 0.583333 1.000000
vt 0.541666 0.500000
vt 0.541666 1.000000
vt 0.500000 0.500000
vt 0.500000 1.000000
vt 0.458333 0.500000
vt 0.458333 1.000000
vt 0.416666 0.500000
vt 0.416666 1.000000
vt 0.375000 0.500000
vt 0.375000 1.000000
vt 0.333333 0.500000
vt 0.333333 1.000000
vt 0.291667 0.500000
vt 0.291667 1.000000
vt 0.250000 0.500000
vt 0.250000 1.000000
vt 0.208333 0.500000
vt 0.208333 1.000000
vt 0.166666 0.500000
vt 0.166666 1.000000
vt 0.125000 0.500000
vt 0.125000 1.000000
vt 0.083333 0.500000
vt 0.083333 1.000000
vt 0.041666 0.500000
vt 0.041666 1.000000
vt -0.000000 0.500000
vt -0.000000 1.000000
vn 1.0000 -0.0000 0.0000
vn -1.0000 0.0000 0.0000
vn 0.6789 0.0000 -0.7342
vn -0.6788 -0.1903 -0.7092
vn -0.6789 0.0000 -0.7342
vn 0.6788 -0.1903 -0.7092
vn -0.6720 -0.3922 -0.6282
vn 0.6720 -0.3922 -0.6282
vn -0.6670 -0.5894 -0.4558
vn 0.6670 -0.5894 -0.4558
vn -0.6762 -0.6981 -0.2350
vn 0.6762 -0.6981 -0.2350
vn -0.6907 -0.7191 -0.0767
vn 0.6907 -0.7191 -0.0767
vn -0.7001 -0.7140 0.0000
vn 0.7001 -0.7140 0.0000
vn -0.6907 -0.7191 0.0767
vn 0.6907 -0.7191 0.0767
vn -0.6762 -0.6981 0.2350
vn 0.6762 -0.6981 0.2350
vn -0.6670 -0.5894 0.4558
vn 0.6670 -0.5894 0.4558
vn -0.6720 -0.3922 0.6282
vn 0.6720 -0.3922 0.6282
vn -0.6788 -0.1903 0.7092
vn 0.6788 -0.1903 0.7092
vn -0.6789 0.0000 0.7342
vn 0.6789 0.0000 0.7342
vn -0.6789 0.1900 0.7092
vn 0.6789 0.1900 0.7092
vn -0.6789 0.3671 0.6359
vn 0.6789 0.3671 0.6359
vn -0.6789 0.5192 0.5192
vn 0.6789 0.5192 0.5192
vn -0.6789 0.6359 0.3671
vn 0.6789 0.6359 0.3671
vn -0.6789 0.7092 0.1900
vn 0.6789 0.7092 0.1900
vn -0.6789 0.7342 0.0000
vn 0.6789 0.7342 0.0000
vn -0.6789 0.7092 -0.1900
vn 0.6789 0.7092 -0.1900
vn -0.6789 0.6359 -0.3671
vn 0.6789 0.6359 -0.3671
vn -0.6789 0.5192 -0.5192
vn 0.6789 0.5192 -0.5192
vn -0.6789 0.3671 -0.6359
vn 0.6789 0.3671 -0.6359
vn -0.6789 0.1900 -0.7092
vn 0.6789 0.1900 -0.7092
s off
f 10/1/1 8/2/1 6/3/1
f 43/4/2 45/5/2 13/6/2
f 6/3/1 4/7/1 10/1/1
f 4/7/1 2/8/1 12/9/1
f 2/8/1 48/10/1 12/9/1
f 48/10/1 46/11/1 12/9/1
f 12/9/1 46/11/1 14/12/1
f 46/11/1 44/13/1 14/12/1
f 44/13/1 42/14/1 14/12/1
f 42/14/1 40/15/1 14/12/1
f 40/15/1 38/16/1 14/12/1
f 38/16/1 36/17/1 14/12/1
f 36/17/1 34/18/1 14/12/1
f 34/18/1 32/19/1 14/12/1
f 32/19/1 30/20/1 14/12/1
f 30/20/1 28/21/1 16/22/1
f 28/21/1 26/23/1 16/22/1
f 30/20/1 16/22/1 14/12/1
f 26/23/1 24/24/1 16/22/1
f 24/24/1 22/25/1 18/26/1
f 16/22/1 24/24/1 18/26/1
f 22/25/1 20/27/1 18/26/1
f 12/9/1 10/1/1 4/7/1
f 47/28/2 1/29/2 11/30/2
f 1/29/2 3/31/2 11/30/2
f 3/31/2 5/32/2 9/33/2
f 5/32/2 7/34/2 9/33/2
f 9/33/2 11/30/2 3/31/2
f 11/30/2 13/6/2 45/5/2
f 13/6/2 15/35/2 29/36/2
f 11/30/2 45/5/2 47/28/2
f 15/35/2 17/37/2 23/38/2
f 17/37/2 19/39/2 21/40/2
f 23/38/2 17/37/2 21/40/2
f 23/38/2 25/41/2 15/35/2
f 25/41/2 27/42/2 15/35/2
f 27/42/2 29/36/2 15/35/2
f 29/36/2 31/43/2 13/6/2
f 31/43/2 33/44/2 13/6/2
f 33/44/2 35/45/2 13/6/2
f 35/45/2 37/46/2 13/6/2
f 37/46/2 39/47/2 13/6/2
f 39/47/2 41/48/2 13/6/2
f 41/48/2 43/4/2 13/6/2
s 1
f 2/49/3 3/50/4 1/51/5
f 4/52/6 5/53/7 3/50/4
f 6/54/8 7/55/9 5/53/7
f 8/56/10 9/57/11 7/55/9
f 10/58/12 11/59/13 9/57/11
f 12/60/14 13/61/15 11/59/13
f 14/62/16 15/63/17 13/61/15
f 16/64/18 17/65/19 15/63/17
f 18/66/20 19/67/21 17/65/19
f 20/68/22 21/69/23 19/67/21
f 22/70/24 23/71/25 21/69/23
f 24/72/26 25/73/27 23/71/25
f 26/74/28 27/75/29 25/73/27
f 28/76/30 29/77/31 27/75/29
f 30/78/32 31/79/33 29/77/31
f 32/80/34 33/81/35 31/79/33
f 34/82/36 35/83/37 33/81/35
f 36/84/38 37/85/39 35/83/37
f 38/86/40 39/87/41 37/85/39
f 40/88/42 41/89/43 39/87/41
f 42/90/44 43/91/45 41/89/43
f 44/92/46 45/93/47 43/91/45
f 46/94/48 47/95/49 45/93/47
f 48/96/50 1/97/5 47/95/49
f 2/49/3 4/52/6 3/50/4
f 4/52/6 6/54/8 5/53/7
f 6/54/8 8/56/10 7/55/9
f 8/56/10 10/58/12 9/57/11
f 10/58/12 12/60/14 11/59/13
f 12/60/14 14/62/16 13/61/15
f 14/62/16 16/64/18 15/63/17
f 16/64/18 18/66/20 17/65/19
f 18/66/20 20/68/22 19/67/21
f 20/68/22 22/70/24 21/69/23
f 22/70/24 24/72/26 23/71/25
f 24/72/26 26/74/28 25/73/27
f 26/74/28 28/76/30 27/75/29
f 28/76/30 30/78/32 29/77/31
f 30/78/32 32/80/34 31/79/33
f 32/80/34 34/82/36 33/81/35
f 34/82/36 36/84/38 35/83/37
f 36/84/38 38/86/40 37/85/39
f 38/86/40 40/88/42 39/87/41
f 40/88/42 42/90/44 41/89/43
f 42/90/44 44/92/46 43/91/45
f 44/92/46 46/94/48 45/93/47
f 46/94/48 48/96/50 47/95/49
f 48/96/50 2/98/3 1/97/5
